<?xml version="1.0" encoding="utf-8"?>
<!-- Generator: Adobe Illustrator 23.0.1, SVG Export Plug-In . SVG Version: 6.00 Build 0)  -->
<svg version="1.1" id="Layer_1" xmlns="http://www.w3.org/2000/svg" xmlns:xlink="http://www.w3.org/1999/xlink" x="0px" y="0px"
	 viewBox="0 0 512 512" style="enable-background:new 0 0 512 512;" xml:space="preserve">
<style type="text/css">
	.st0{fill:#A7F3D0;}
	.st1{fill:#10B981;}
</style>
<g id="BG">
	<path class="st0" d="M253.9,508L253.9,508C114.8,507.9,2.1,394.7,2.2,255.2l0,0C2.4,115.6,115.3,2.7,254.4,2.8l0,0
		C393.6,3,506.3,116.2,506.1,255.7l0,0C506,395.2,393.1,508.2,253.9,508z"/>
</g>
<g id="bold_v2">
	<path class="st1" d="M496.4,170.6c2.4-6.4,3.4-13.2,3.4-20.4c0-31.7-22.7-58.3-53.1-64c-3.4-4-6.8-7.6-10.2-11.2
		C337-24.4,174.8-24.4,75.2,75c-99.4,99.6-99.4,261.8,0,361.1c3.6,3.4,7.2,6.8,11.2,10.2c6,30.3,32.5,53.3,64.2,53.3
		c7.2,0,14-1,20.4-3.4c27.9,10,56.7,15,85.4,15c66.2,0,131.1-25.7,180.4-75C506.6,366.3,529.3,263.3,496.4,170.6L496.4,170.6z
		 M457.3,150.2c0,12.6-10.2,22.7-22.9,22.7c-6.8,0-26.5-9.6-48.7-22.7c22.1-13.2,41.9-22.7,48.7-22.7
		C447.1,127.5,457.3,137.6,457.3,150.2z M240.6,95.1c1.6-8.8,9.8-14.4,18.4-13c8.8,1.6,14.8,9.8,13,18.6l-2,11.2l-5.4,30.3l30.3-5.4
		l11.2-2c9-1.6,17,4.2,18.6,12.8c0.2,0.8,0.2,1.6,0.2,2.6v0.2c0,7.6-5.4,14.4-13.2,15.8l-63.8,11.2c-1,0.2-2,0.2-3,0.2
		c-4,0-8-1.6-11.2-4.8c-3.6-3.6-5.4-8.8-4.2-14L240.6,95.1z M95.6,240.2l63.8-11.6c5.4-0.8,10.4,0.8,14,4.4c3.8,3.8,5.6,9,4.4,14
		l-11.2,64c-1.2,7.6-8,13.2-15.6,13.2c-1,0-2,0-3-0.2c-8.6-1.6-14.4-9.8-12.8-18.6l2-11.2l5.4-30.3l-30.3,5.4l-11.2,2
		c-9,1.6-17-4.2-18.6-13C81,250,86.8,241.8,95.6,240.2L95.6,240.2z M150.6,456.9c-12.6,0-22.7-10.2-22.7-22.9
		c0-6.8,9.6-26.5,22.7-48.7c13.2,22.1,22.7,41.9,22.7,48.7C173.4,446.5,163.2,456.9,150.6,456.9z M394.9,394.2
		c-35.7,35.7-83.4,55.1-132.9,55.1c-13.4,0-26.7-1.6-40.5-4.2c-2.2-0.4-4.2-1-6.4-1.6c0.6-3,0.8-6.4,0.8-9.6c0-15-10-37.1-21.1-57.1
		l182.4-182.4c20,11.2,42.1,21.1,57.1,21.1c3.2,0,6.6-0.2,9.6-0.8c0.6,2.2,1.2,4.2,1.6,6.6C459.3,284.1,440.3,348.7,394.9,394.2z"/>
</g>
</svg>
