<?xml version="1.0" encoding="utf-8"?>
<!-- Generator: Adobe Illustrator 23.0.1, SVG Export Plug-In . SVG Version: 6.00 Build 0)  -->
<svg version="1.1" id="Layer_1" xmlns="http://www.w3.org/2000/svg" xmlns:xlink="http://www.w3.org/1999/xlink" x="0px" y="0px"
	 viewBox="0 0 512 512" style="enable-background:new 0 0 512 512;" xml:space="preserve">
<style type="text/css">
	.st0{fill:#FECACA;}
	.st1{fill:#EF4444;}
</style>
<g id="BG">
	<path class="st0" d="M247.4,473.6L247.4,473.6C113.9,473.6,5.6,371.5,5.6,245.4l0,0c0-126.1,108.2-228.3,241.8-228.3l0,0
		c133.6,0,241.8,102.2,241.8,228.3l0,0C489.2,371.5,381,473.6,247.4,473.6z"/>
</g>
<g id="bold_v2">
	<path class="st1" d="M490.1,256.9c0.4-3.4,0.4-7,0.4-10.4c0-135.1-109.9-245.2-245.2-245.2S0.4,111.4,0.4,246.5
		s109.9,245.2,245.2,245.2c95.5,0,180.2-53.9,221-139.1c25.6-3.8,45.4-26,45.4-52.7C511.9,282,503.3,266.4,490.1,256.9z
		 M311.3,429.9c-3.2,3.2-7.2,4.8-11.2,4.8s-8.2-1.6-11.4-4.8c-5.8-5.8-13.2-9.8-21.4-11.2c-6.4-1.6-13.4-1.6-20,0
		c-8,1.6-15.6,5.6-21.4,11.2c-6.2,6.2-16.4,6.2-22.6,0c-6.2-6.2-6.2-16.4,0-22.6c28.8-28.8,79.1-28.8,107.9,0
		C317.5,413.5,317.5,423.9,311.3,429.9z M192.2,171.9c0,23.4-19.2,42.6-42.6,42.6s-42.6-19.2-42.6-42.6s19.2-42.6,42.6-42.6
		C173,129.2,192.2,148.4,192.2,171.9z M320.1,171.9c0-23.4,19.2-42.6,42.6-42.6c23.4,0,42.6,19.2,42.6,42.6s-19.2,42.6-42.6,42.6
		C339.3,214.5,320.1,195.3,320.1,171.9z M461.1,320.8c-0.8,0.2-1.6,0.2-2.6,0.2h-12.8h-195v-42.6h207.8c0.6,0,1.6,0,2.2,0.2
		c3.6,0.2,6.8,1.6,9.6,3.2l3.6,3.2c3.6,3.8,6,9,6,14.8c0,7.6-4,14.4-10.2,18.2C467.1,319.6,464.3,320.4,461.1,320.8z"/>
</g>
</svg>
