<?xml version="1.0" encoding="utf-8"?>
<!-- Generator: Adobe Illustrator 23.0.1, SVG Export Plug-In . SVG Version: 6.00 Build 0)  -->
<svg version="1.1" id="Layer_1" xmlns="http://www.w3.org/2000/svg" xmlns:xlink="http://www.w3.org/1999/xlink" x="0px" y="0px"
	 viewBox="0 0 512 512" style="enable-background:new 0 0 512 512;" xml:space="preserve">
<style type="text/css">
	.st0{fill:#BFDBFE;}
	.st1{fill:#3B82F6;}
</style>
<g id="BG">
	<path class="st0" d="M256,512L256,512C114.6,512,0,397.4,0,256l0,0C0,114.6,114.6,0,256,0l0,0c141.4,0,256,114.6,256,256l0,0
		C512,397.4,397.4,512,256,512z"/>
</g>
<g id="bold_v2">
	<path class="st1" d="M256.1,0.2C114.9,0.2,0.2,114.9,0.2,256.1s114.7,255.9,255.9,255.9s255.9-114.7,255.9-255.9
		S397.2,0.2,256.1,0.2z M65,168.1c1.8-5.8,6.8-10,13-10.8l39.6-5.8l17.6-35.8c5.4-11,23.2-11,28.8,0l17.6,35.8l39.6,5.8
		c6,0.8,11,5,13,10.8c2,5.8,0.4,12.2-4,16.4l-28.6,28l6.8,39.4c1,6-1.4,12-6.4,15.6c-2.8,2-6,3-9.4,3c-2.6,0-5.2-0.6-7.4-1.8
		l-35.4-18.6l-35.4,18.6c-5.4,2.8-12,2.4-16.8-1.2c-5-3.6-7.4-9.6-6.4-15.6l6.8-39.4l-28.6-28C64.6,180.3,63,173.9,65,168.1
		L65,168.1z M256.1,452.8c-62.6,0-119.1-30.4-153.9-79.4H410C375.2,422.4,318.6,452.8,256.1,452.8L256.1,452.8z M436.8,319.4
		c-2.4,7.6-5.2,14.8-8.4,22H84c-3.2-7.2-6.2-14.4-8.4-22c-1.6-4.8-0.6-10,2.6-14c3-4.2,7.6-6.6,12.8-6.6h330.4
		c5.2,0,9.8,2.4,12.8,6.6C437.4,309.4,438.2,314.4,436.8,319.4z M414.6,212.5l6.8,39.4c1,6-1.4,12-6.4,15.6c-2.8,2-6,3-9.4,3
		c-2.6,0-5.2-0.6-7.4-1.8l-35.4-18.6l-35.4,18.6c-5.4,2.8-12,2.4-16.8-1.2c-5-3.6-7.4-9.6-6.4-15.6l6.8-39.4l-28.6-28
		c-4.4-4.2-6-10.6-4-16.4c1.8-5.8,6.8-10,13-10.8l39.6-5.8l17.6-35.8c5.4-11,23.2-11,28.8,0l17.6,35.8l39.6,5.8c6,0.8,11,5,13,10.8
		c2,5.8,0.4,12.2-4,16.4L414.6,212.5z"/>
</g>
</svg>
