<svg id="fd4e4f51-c7af-4337-b511-7596ab8fdbc1" data-name="Layer 1" xmlns="http://www.w3.org/2000/svg" width="3.43in" height="3.44in" viewBox="0 0 247.96 247.96">
  <title>Portfolio-Words</title>
  <g>
    <path d="M135.1,24.37l0-.49,2.18-.12a2.81,2.81,0,0,0,1.09-.26,1.28,1.28,0,0,0,.59-.58,1.53,1.53,0,0,0,.16-.77,1.66,1.66,0,0,0-.24-.76,1.45,1.45,0,0,0-.66-.52,2.46,2.46,0,0,0-1.11-.16l-2,.12.36,6.29-.64,0-.39-6.78,2.6-.15a3.28,3.28,0,0,1,1.42.17,2,2,0,0,1,.91.66,1.9,1.9,0,0,1,.35,1,1.93,1.93,0,0,1-.23,1.09,1.86,1.86,0,0,1-.82.74,3.9,3.9,0,0,1-1.4.32Z" transform="translate(-19.79 -19.94)"/>
    <path d="M142.37,26.84h-.63l-.08-5.05h.62l0,.84Zm1.92-4.61-.2,0a1.61,1.61,0,0,0-.22,0,1.59,1.59,0,0,0-.9.24,1.49,1.49,0,0,0-.55.64,2.1,2.1,0,0,0-.19.88l-.24.08a3.42,3.42,0,0,1,.19-1.19,1.88,1.88,0,0,1,.62-.86,1.82,1.82,0,0,1,1.08-.33l.24,0,.18,0Z" transform="translate(-19.79 -19.94)"/>
    <path d="M145.35,24.21a2.77,2.77,0,0,1,.36-1.3,2.18,2.18,0,0,1,.91-.87,2.53,2.53,0,0,1,1.34-.29,2.69,2.69,0,0,1,1.33.37,2.27,2.27,0,0,1,.86.93,2.84,2.84,0,0,1,.27,1.32v.16a2.61,2.61,0,0,1-.35,1.29,2.33,2.33,0,0,1-.91.88,2.68,2.68,0,0,1-1.35.28,2.55,2.55,0,0,1-1.32-.37,2.27,2.27,0,0,1-.86-.93,2.59,2.59,0,0,1-.27-1.31Zm.63.18a2.32,2.32,0,0,0,.18,1,1.85,1.85,0,0,0,.63.78,1.78,1.78,0,0,0,1,.32,1.73,1.73,0,0,0,1-.25,1.84,1.84,0,0,0,.67-.74,2.32,2.32,0,0,0,.25-1v-.16a2.35,2.35,0,0,0-.19-1,1.83,1.83,0,0,0-.62-.78,1.73,1.73,0,0,0-1-.33,1.79,1.79,0,0,0-1,.26,1.84,1.84,0,0,0-.67.74,2.47,2.47,0,0,0-.25,1Z" transform="translate(-19.79 -19.94)"/>
    <path d="M153.29,20l-.53,6.17-.13,1-.58-.05.61-7.14Zm3.53,5a3.29,3.29,0,0,1-.37,1.31,1.95,1.95,0,0,1-2,1.06,2.39,2.39,0,0,1-1.13-.35,1.89,1.89,0,0,1-.68-.75,2.66,2.66,0,0,1-.27-1l.1-1.26a3.16,3.16,0,0,1,.48-1,1.9,1.9,0,0,1,.79-.64,2.44,2.44,0,0,1,1.15-.16,2.13,2.13,0,0,1,1.15.42,2,2,0,0,1,.66,1,3.38,3.38,0,0,1,.14,1.38Zm-.62-.15a3.36,3.36,0,0,0-.08-1.07,1.69,1.69,0,0,0-.47-.8,1.56,1.56,0,0,0-.93-.35,1.77,1.77,0,0,0-.78.07,1.62,1.62,0,0,0-.55.3,1.7,1.7,0,0,0-.36.45,2.05,2.05,0,0,0-.22.48l-.13,1.45a2,2,0,0,0,.25.69,1.58,1.58,0,0,0,.55.54,1.9,1.9,0,0,0,.88.27,1.49,1.49,0,0,0,1-.2,1.54,1.54,0,0,0,.6-.7,2.94,2.94,0,0,0,.27-1Z" transform="translate(-19.79 -19.94)"/>
    <path d="M159.15,27.8l-.62-.08.9-7.11.61.08Z" transform="translate(-19.79 -19.94)"/>
    <path d="M163.45,28.53a2.63,2.63,0,0,1-1.24-.53,2.26,2.26,0,0,1-.75-1,2.52,2.52,0,0,1-.12-1.32l0-.2a2.62,2.62,0,0,1,.55-1.28,2.47,2.47,0,0,1,1-.73,2.33,2.33,0,0,1,1.23-.12,2.37,2.37,0,0,1,1.16.5,1.9,1.9,0,0,1,.62.93A2.61,2.61,0,0,1,166,26l-.05.34-4.24-.7.08-.47,3.61.6v-.07a1.84,1.84,0,0,0-.06-.81,1.4,1.4,0,0,0-.43-.69,1.53,1.53,0,0,0-.84-.38,1.67,1.67,0,0,0-1,.11,1.77,1.77,0,0,0-.74.62,2.41,2.41,0,0,0-.4,1l0,.19a2.12,2.12,0,0,0,.08,1,1.89,1.89,0,0,0,.56.83,1.93,1.93,0,0,0,1,.43,2.29,2.29,0,0,0,.91,0,2,2,0,0,0,.77-.4l.35.32a2.16,2.16,0,0,1-.85.5A2.67,2.67,0,0,1,163.45,28.53Z" transform="translate(-19.79 -19.94)"/>
    <path d="M167.74,29.19l-.61-.15,1.15-4.91.59.13-.21,1Zm.27-3a2.57,2.57,0,0,1,.56-1,2,2,0,0,1,.92-.59,2.24,2.24,0,0,1,1.21,0,2,2,0,0,1,1.2.71,1.66,1.66,0,0,1,.17,1.44L171.3,30l-.61-.15.77-3.25a1.59,1.59,0,0,0,0-.81,1,1,0,0,0-.38-.51,1.86,1.86,0,0,0-.67-.28,1.72,1.72,0,0,0-.84,0,1.57,1.57,0,0,0-.63.32,1.88,1.88,0,0,0-.43.51,2.36,2.36,0,0,0-.24.55Zm3.63.55a1.93,1.93,0,0,1,.51-.81,2,2,0,0,1,.91-.5,2.29,2.29,0,0,1,1.19,0,2.5,2.5,0,0,1,.93.41,1.35,1.35,0,0,1,.48.73,2.26,2.26,0,0,1,0,1.09l-.76,3.2-.61-.15.76-3.2a1.65,1.65,0,0,0,0-.85,1,1,0,0,0-.38-.52,2,2,0,0,0-.67-.28,1.88,1.88,0,0,0-.74,0,1.49,1.49,0,0,0-.57.2,1.64,1.64,0,0,0-.41.37,1.22,1.22,0,0,0-.22.42Z" transform="translate(-19.79 -19.94)"/>
    <path d="M184.5,32.22a1.11,1.11,0,0,0,0-.67,1.69,1.69,0,0,0-.46-.66,7.44,7.44,0,0,0-1-.79,8.38,8.38,0,0,1-.88-.63,3.57,3.57,0,0,1-.61-.63,1.66,1.66,0,0,1-.31-.66,1.53,1.53,0,0,1,.67-1.49A2.23,2.23,0,0,1,183,26.4a3.88,3.88,0,0,1,1.33.23,3.31,3.31,0,0,1,1.23.7,2.2,2.2,0,0,1,.62,1,1.81,1.81,0,0,1,0,1.08l-.61-.21a1.39,1.39,0,0,0,0-.83,1.49,1.49,0,0,0-.46-.73,2.5,2.5,0,0,0-.94-.54,3.12,3.12,0,0,0-1.05-.18,1.55,1.55,0,0,0-.76.22,1,1,0,0,0-.4.53.91.91,0,0,0,0,.61,1.59,1.59,0,0,0,.45.65,7.41,7.41,0,0,0,1,.77,6.86,6.86,0,0,1,1.16.87,2.33,2.33,0,0,1,.61.89,1.47,1.47,0,0,1,0,1,1.43,1.43,0,0,1-.63.79,2.06,2.06,0,0,1-1.08.27,4,4,0,0,1-1.35-.23,4.57,4.57,0,0,1-.92-.44,3.63,3.63,0,0,1-.76-.64,2,2,0,0,1-.42-.82,1.74,1.74,0,0,1,.06-1l.61.21a1.31,1.31,0,0,0,0,.75,1.46,1.46,0,0,0,.34.62,2.75,2.75,0,0,0,.58.48,4.69,4.69,0,0,0,.72.33,2.91,2.91,0,0,0,1,.18,1.53,1.53,0,0,0,.8-.2A1,1,0,0,0,184.5,32.22Z" transform="translate(-19.79 -19.94)"/>
    <path d="M186.78,32.07a2.64,2.64,0,0,1,.79-1.1,2.3,2.3,0,0,1,1.15-.5,2.64,2.64,0,0,1,1.36.19,2.73,2.73,0,0,1,1.12.81,2.32,2.32,0,0,1,.48,1.17,2.66,2.66,0,0,1-.21,1.34l-.06.14a2.59,2.59,0,0,1-.78,1.09,2.26,2.26,0,0,1-1.15.51,2.63,2.63,0,0,1-1.36-.2,2.73,2.73,0,0,1-1.12-.81,2.32,2.32,0,0,1-.48-1.17,2.71,2.71,0,0,1,.2-1.33Zm.52.38a2.64,2.64,0,0,0-.18,1,1.85,1.85,0,0,0,.31.94,1.81,1.81,0,0,0,.86.66,1.78,1.78,0,0,0,1.07.13,2,2,0,0,0,.88-.46,2.4,2.4,0,0,0,.59-.87l.06-.14a2.32,2.32,0,0,0,.18-1,1.91,1.91,0,0,0-.31-.95,1.89,1.89,0,0,0-.86-.66,1.77,1.77,0,0,0-2,.34,2.45,2.45,0,0,0-.59.86Z" transform="translate(-19.79 -19.94)"/>
    <path d="M192.73,37.41l-.57-.26,3-6.52.57.25Z" transform="translate(-19.79 -19.94)"/>
    <path d="M196.62,38.7l-.14.51-.42-.21.36-5.47.58.29Zm3.47-3.33.59.29-4.16,3.57-.41-.21.34-.42Z" transform="translate(-19.79 -19.94)"/>
    <path d="M201.58,42a2.7,2.7,0,0,1-1-.93,2.33,2.33,0,0,1-.35-1.2,2.41,2.41,0,0,1,.34-1.28l.1-.18a2.5,2.5,0,0,1,2.17-1.35,2.42,2.42,0,0,1,1.2.32,2.26,2.26,0,0,1,.92.86,1.89,1.89,0,0,1,.27,1.09,2.65,2.65,0,0,1-.36,1.16l-.17.3L201,38.72l.23-.41,3.19,1.8,0-.06a1.85,1.85,0,0,0,.23-.78,1.49,1.49,0,0,0-.17-.8,1.57,1.57,0,0,0-.66-.64,1.65,1.65,0,0,0-.95-.23,1.74,1.74,0,0,0-.91.33,2.38,2.38,0,0,0-.73.83l-.1.18a2.17,2.17,0,0,0-.29,1,2,2,0,0,0,.25,1,1.86,1.86,0,0,0,.74.73,2.37,2.37,0,0,0,.86.29,2,2,0,0,0,.87-.11l.21.42a2.13,2.13,0,0,1-1,.18A2.67,2.67,0,0,1,201.58,42Z" transform="translate(-19.79 -19.94)"/>
    <path d="M205.45,44.21l-.54-.33,2.67-4.29.52.33-.43.71Zm4.11-2.83-.17-.13-.17-.12a1.63,1.63,0,0,0-.9-.28,1.49,1.49,0,0,0-.8.23,2.17,2.17,0,0,0-.64.64l-.24-.06a3.35,3.35,0,0,1,.8-.9,1.87,1.87,0,0,1,1-.38,1.7,1.7,0,0,1,1.08.31l.2.14.13.12Z" transform="translate(-19.79 -19.94)"/>
    <path d="M207.8,45.29a.36.36,0,0,1,.25-.16.48.48,0,0,1,.33.08.47.47,0,0,1,.21.28.35.35,0,0,1-.05.3.32.32,0,0,1-.25.15.44.44,0,0,1-.33-.09.39.39,0,0,1-.21-.27A.34.34,0,0,1,207.8,45.29Z" transform="translate(-19.79 -19.94)"/>
    <path d="M218.46,50.75a2.63,2.63,0,0,1-1.06.69,2.25,2.25,0,0,1-1.21,0,3.52,3.52,0,0,1-1.31-.66,2.94,2.94,0,0,1-1-1.22,2.58,2.58,0,0,1-.15-1.46,3.5,3.5,0,0,1,.69-1.5L215,46a3.41,3.41,0,0,1,1.26-1.07,2.6,2.6,0,0,1,1.45-.24,3,3,0,0,1,1.46.63,3.41,3.41,0,0,1,1,1.06,2.25,2.25,0,0,1,.28,1.17,2.64,2.64,0,0,1-.39,1.21l-.51-.39a2,2,0,0,0,.27-1.39,2.16,2.16,0,0,0-.91-1.27,2.19,2.19,0,0,0-1.16-.48,2,2,0,0,0-1.17.24,3,3,0,0,0-1,.91L215,47a3.16,3.16,0,0,0-.59,1.21,2,2,0,0,0,.8,2.18,2.78,2.78,0,0,0,1,.53,1.56,1.56,0,0,0,.91,0,2.38,2.38,0,0,0,.84-.56Z" transform="translate(-19.79 -19.94)"/>
    <path d="M219.07,54l-.49-.41,3.25-3.86.47.39-.52.65Zm4.47-2.22-.14-.15-.16-.15a1.62,1.62,0,0,0-.85-.4,1.5,1.5,0,0,0-.83.12,2.1,2.1,0,0,0-.72.53l-.23-.09a3.17,3.17,0,0,1,.92-.78,1.83,1.83,0,0,1,1-.23,1.76,1.76,0,0,1,1,.46l.17.16a.92.92,0,0,1,.11.15Z" transform="translate(-19.79 -19.94)"/>
    <path d="M223.25,57.82a2.64,2.64,0,0,1-.75-1.12,2.34,2.34,0,0,1-.07-1.26,2.49,2.49,0,0,1,.62-1.16l.14-.15a2.66,2.66,0,0,1,1.16-.77,2.36,2.36,0,0,1,1.26,0,2.4,2.4,0,0,1,1.1.58,2.34,2.34,0,0,1,.7,1,1.94,1.94,0,0,1,0,1.12,2.57,2.57,0,0,1-.62,1.06l-.23.25-3.16-2.9.32-.35,2.7,2.48,0-.05a1.83,1.83,0,0,0,.4-.72,1.58,1.58,0,0,0,0-.81,1.61,1.61,0,0,0-.5-.78,1.72,1.72,0,0,0-.87-.44,1.8,1.8,0,0,0-1,.12,2.45,2.45,0,0,0-.9.65l-.13.14a2.11,2.11,0,0,0-.51.92,1.85,1.85,0,0,0,0,1,1.82,1.82,0,0,0,.56.88,2.14,2.14,0,0,0,.77.48,1.8,1.8,0,0,0,.87.09l.11.46a2.4,2.4,0,0,1-1,0A2.66,2.66,0,0,1,223.25,57.82Z" transform="translate(-19.79 -19.94)"/>
    <path d="M230.4,61.16l-.87-.87a3,3,0,0,0-1.27-.86.88.88,0,0,0-1.22.92,1.37,1.37,0,0,0,.45.87,2.4,2.4,0,0,0,.77.54,1.88,1.88,0,0,0,.79.15,1.53,1.53,0,0,0,.68-.18l0,.42a1.7,1.7,0,0,1-.51.16,2.48,2.48,0,0,1-.66,0,2.77,2.77,0,0,1-.72-.24,2.62,2.62,0,0,1-.71-.54,2.2,2.2,0,0,1-.55-.82,1.53,1.53,0,0,1-.08-.81,1.22,1.22,0,0,1,.36-.68,1.32,1.32,0,0,1,1.32-.33,3.6,3.6,0,0,1,1.64,1.05l.91.93Zm.6-.81a1.06,1.06,0,0,0,.34-.87,1.7,1.7,0,0,0-.54-1,2.07,2.07,0,0,0-.64-.46,1.45,1.45,0,0,0-.65-.13.8.8,0,0,0-.5.22l-.44-.45a1.13,1.13,0,0,1,.71-.31,2,2,0,0,1,.93.16,2.7,2.7,0,0,1,.94.66,2.92,2.92,0,0,1,.63.89,1.62,1.62,0,0,1,.12.91,1.57,1.57,0,0,1-.47.83l-1.74,1.71a3.58,3.58,0,0,0-.35.41,1.85,1.85,0,0,0-.24.42l0,0-.47-.47a2.36,2.36,0,0,1,.23-.37,3.88,3.88,0,0,1,.32-.36Z" transform="translate(-19.79 -19.94)"/>
    <path d="M235.75,61.31,232,64.74a1,1,0,0,0-.32.43.52.52,0,0,0,0,.37,1.13,1.13,0,0,0,.19.31l.2.19.18.15-.33.33a1.64,1.64,0,0,1-.24-.19l-.26-.26a1.47,1.47,0,0,1-.34-.55.89.89,0,0,1,0-.6,1.67,1.67,0,0,1,.48-.65l3.8-3.43Zm-.51,2-1.91-2.12.34-.3,1.91,2.11Z" transform="translate(-19.79 -19.94)"/>
    <path d="M233.46,68.33l-.4-.48,3.84-3.27.41.47Zm4.48-4.78a.37.37,0,0,1,.28-.09.44.44,0,0,1,.29.17.41.41,0,0,1,.12.31.36.36,0,0,1-.13.26.3.3,0,0,1-.27.08.41.41,0,0,1-.29-.17.4.4,0,0,1-.12-.31A.37.37,0,0,1,237.94,63.55Z" transform="translate(-19.79 -19.94)"/>
    <path d="M236.44,71.15l-.35.4-.28-.36,2.64-4.81.4.51ZM241,69.61l.4.51-5.28,1.47-.29-.37.5-.23Z" transform="translate(-19.79 -19.94)"/>
    <path d="M239.52,76.28A2.64,2.64,0,0,1,239,75a2.39,2.39,0,0,1,.19-1.24,2.44,2.44,0,0,1,.86-1l.16-.12a2.65,2.65,0,0,1,1.3-.51,2.38,2.38,0,0,1,1.24.21,2.42,2.42,0,0,1,1,.79,2.39,2.39,0,0,1,.47,1.17,1.9,1.9,0,0,1-.22,1.1,2.7,2.7,0,0,1-.82.91l-.28.19L240.37,73l.38-.28,2.13,3,.05,0a1.88,1.88,0,0,0,.54-.62,1.51,1.51,0,0,0-.14-1.65,1.71,1.71,0,0,0-.76-.61,1.77,1.77,0,0,0-1-.09,2.51,2.51,0,0,0-1,.44l-.16.12a2.13,2.13,0,0,0-.68.79,1.8,1.8,0,0,0-.19,1,1.78,1.78,0,0,0,.37,1,2,2,0,0,0,.65.63,1.85,1.85,0,0,0,.83.27l0,.48a2.38,2.38,0,0,1-1-.26A2.58,2.58,0,0,1,239.52,76.28Z" transform="translate(-19.79 -19.94)"/>
    <path d="M242,79.14a.38.38,0,0,1,.29-.06.46.46,0,0,1,.27.21.45.45,0,0,1,.09.34.39.39,0,0,1-.17.26.36.36,0,0,1-.29,0,.5.5,0,0,1-.27-.22.45.45,0,0,1-.08-.33A.33.33,0,0,1,242,79.14Z" transform="translate(-19.79 -19.94)"/>
    <path d="M248.5,89.12a1.85,1.85,0,0,1-.55-.21,3.6,3.6,0,0,1-.74-.57,5.22,5.22,0,0,1-.78-1.1,3.24,3.24,0,0,1-.45-1.57,2.73,2.73,0,0,1,.42-1.47,3.16,3.16,0,0,1,1.25-1.14l.72-.41a3.44,3.44,0,0,1,1.59-.47,2.53,2.53,0,0,1,1.42.38,3.21,3.21,0,0,1,1.1,1.2,3.61,3.61,0,0,1,.47,1.37,2.28,2.28,0,0,1-.19,1.15,2.21,2.21,0,0,1-.7.85l-.31-.56a1.82,1.82,0,0,0,.5-.63,1.7,1.7,0,0,0,.17-.86,2.76,2.76,0,0,0-.37-1.09,2.39,2.39,0,0,0-.89-.94A2.05,2.05,0,0,0,250,82.8a3.14,3.14,0,0,0-1.3.42l-.73.4a2.93,2.93,0,0,0-1.05.94,2.13,2.13,0,0,0-.39,1.18,2.44,2.44,0,0,0,.33,1.27,4,4,0,0,0,.57.81,2.57,2.57,0,0,0,.53.46,1.34,1.34,0,0,0,.4.2l1.53-.86-1-1.79.42-.24,1.31,2.35Z" transform="translate(-19.79 -19.94)"/>
    <path d="M249,92l-.28-.56,4.53-2.23.27.55-.74.38Zm5-.23c0-.07-.05-.13-.07-.2a1.07,1.07,0,0,0-.09-.19,1.6,1.6,0,0,0-.61-.71,1.46,1.46,0,0,0-.81-.23,2.12,2.12,0,0,0-.87.2l-.18-.18a3.54,3.54,0,0,1,1.16-.34,1.93,1.93,0,0,1,1,.2,1.85,1.85,0,0,1,.76.84l.09.22a.49.49,0,0,1,0,.18Z" transform="translate(-19.79 -19.94)"/>
    <path d="M252.68,93.53a2.87,2.87,0,0,1,1.33-.24,2.32,2.32,0,0,1,1.18.45,2.82,2.82,0,0,1,1.07,2.45,2.22,2.22,0,0,1-.47,1.17,2.69,2.69,0,0,1-1.07.81l-.14.06a2.62,2.62,0,0,1-1.32.24,2.25,2.25,0,0,1-1.19-.44A2.92,2.92,0,0,1,251,95.58a2.31,2.31,0,0,1,.47-1.17,2.58,2.58,0,0,1,1.07-.81Zm.11.64a2.27,2.27,0,0,0-.84.62,1.73,1.73,0,0,0-.28,2,1.73,1.73,0,0,0,.68.83,1.77,1.77,0,0,0,1,.29,2.28,2.28,0,0,0,1-.21l.15-.06a2.36,2.36,0,0,0,.84-.62,1.92,1.92,0,0,0,.44-.89,1.83,1.83,0,0,0-.16-1.08,1.77,1.77,0,0,0-.68-.83,1.89,1.89,0,0,0-1-.28,2.33,2.33,0,0,0-1,.21Z" transform="translate(-19.79 -19.94)"/>
    <path d="M254.54,101.64l-1,.64-.16-.43,4.18-3.28.22.61Zm4.2.15.15.42-1.07.11-4.26,0-.15-.41,1.23-.1Zm-3,3.09-1,.73-.15-.41,3.27-2.75.89-.59.16.44Zm4.1,0,.22.61-5.31.18-.16-.42,1.2-.14Z" transform="translate(-19.79 -19.94)"/>
    <path d="M262.15,107.88l-4.89,1.5a1,1,0,0,0-.48.25.56.56,0,0,0-.15.34,1.12,1.12,0,0,0,.05.36c0,.09.06.18.09.25l.1.22-.43.16a1.67,1.67,0,0,1-.14-.27,3.62,3.62,0,0,1-.13-.35,1.62,1.62,0,0,1-.07-.64.91.91,0,0,1,.26-.54,1.68,1.68,0,0,1,.72-.39l4.89-1.49Zm-1.33,1.64L260,106.8l.43-.14.84,2.73Z" transform="translate(-19.79 -19.94)"/>
    <path d="M257.08,113.18l-.15-.61,6.94-1.79.16.6Zm2.79-1.16a2.53,2.53,0,0,1,1.13,0,2.26,2.26,0,0,1,.95.57,2.14,2.14,0,0,1,.58,1,2.45,2.45,0,0,1,.06,1,1.29,1.29,0,0,1-.42.75,2.29,2.29,0,0,1-1,.48l-3.18.83-.16-.61,3.19-.83a1.55,1.55,0,0,0,.75-.36.89.89,0,0,0,.3-.55,1.83,1.83,0,0,0-.06-.72,1.63,1.63,0,0,0-.36-.72,2,2,0,0,0-1.25-.62,1.76,1.76,0,0,0-.61,0Z" transform="translate(-19.79 -19.94)"/>
    <path d="M261.55,120.08l-.52-2.46.47-.1L262,120Z" transform="translate(-19.79 -19.94)"/>
    <path d="M259.3,123l-.11-.64,6.7-1.13.11.64Zm3.72,3-.63-3.72.49-.09.63,3.72Zm3.18,0-.72-4.24.48-.09.72,4.24Z" transform="translate(-19.79 -19.94)"/>
    <path d="M262.71,127.83a2.69,2.69,0,0,1,1.34.16,2.31,2.31,0,0,1,1,.77,2.64,2.64,0,0,1,.48,1.29,2.67,2.67,0,0,1-.18,1.37,2.25,2.25,0,0,1-.8,1,2.73,2.73,0,0,1-1.26.46l-.16,0a2.66,2.66,0,0,1-1.33-.17,2.29,2.29,0,0,1-1-.77,2.64,2.64,0,0,1-.48-1.29,2.79,2.79,0,0,1,.18-1.37,2.38,2.38,0,0,1,.8-1,2.73,2.73,0,0,1,1.26-.46Zm-.08.64a2.42,2.42,0,0,0-1,.33,1.91,1.91,0,0,0-.68.73,1.86,1.86,0,0,0-.17,1.07,1.81,1.81,0,0,0,.41,1,1.86,1.86,0,0,0,.82.55,2.42,2.42,0,0,0,1,.1l.15,0a2.32,2.32,0,0,0,1-.33,1.77,1.77,0,0,0,.86-1.8,1.81,1.81,0,0,0-.41-1,1.9,1.9,0,0,0-.83-.55,2.37,2.37,0,0,0-1-.1Z" transform="translate(-19.79 -19.94)"/>
    <path d="M261.34,136.92a2.17,2.17,0,0,0,.18.74,1.41,1.41,0,0,0,.44.55,1,1,0,0,0,.66.22l0,.61a1.51,1.51,0,0,1-.88-.28,2.06,2.06,0,0,1-.63-.76,2.8,2.8,0,0,1,0-2.4,2.1,2.1,0,0,1,.86-.86,2.88,2.88,0,0,1,1.26-.35h.19a2.9,2.9,0,0,1,1.3.19,2.08,2.08,0,0,1,.95.76,2.48,2.48,0,0,1,.42,1.3,2.67,2.67,0,0,1-.16,1.11,1.82,1.82,0,0,1-.57.81,1.7,1.7,0,0,1-.93.38l0-.6a1.35,1.35,0,0,0,1.11-.88,1.85,1.85,0,0,0,.12-.79,1.73,1.73,0,0,0-.36-1,1.59,1.59,0,0,0-.79-.52,2.78,2.78,0,0,0-1-.12h-.19a2.77,2.77,0,0,0-1,.24,1.67,1.67,0,0,0-.72.62A1.73,1.73,0,0,0,261.34,136.92Z" transform="translate(-19.79 -19.94)"/>
    <path d="M263.31,144.89a2.93,2.93,0,0,1-1.14-.21,1.64,1.64,0,0,1-.79-.71,2.49,2.49,0,0,1-.31-1.28,2,2,0,0,1,.42-1.36,1.83,1.83,0,0,1,1.46-.54l3.23,0v.63l-3.24,0a1.74,1.74,0,0,0-.84.19,1.07,1.07,0,0,0-.44.48,1.76,1.76,0,0,0-.12.66,2.16,2.16,0,0,0,.26,1.09,1.35,1.35,0,0,0,.64.57,2.13,2.13,0,0,0,.84.15Zm2.93-.49V145l-5.05.08v-.61l1.17,0Z" transform="translate(-19.79 -19.94)"/>
    <path d="M262.29,150.6a.8.8,0,0,0,.41-.1,1.11,1.11,0,0,0,.39-.43,3.83,3.83,0,0,0,.33-.94,5.33,5.33,0,0,1,.33-1.06,1.81,1.81,0,0,1,.47-.66,1.12,1.12,0,0,1,1.37.07,1.67,1.67,0,0,1,.47.71,2.78,2.78,0,0,1,.14,1.07,3,3,0,0,1-.24,1.12,1.61,1.61,0,0,1-.57.7,1.25,1.25,0,0,1-.78.22l0-.64a.92.92,0,0,0,.73-.34,1.62,1.62,0,0,0,.37-1.07,1.88,1.88,0,0,0-.1-.8,1,1,0,0,0-.31-.46.78.78,0,0,0-.41-.16.77.77,0,0,0-.4.1,1,1,0,0,0-.34.43,5.86,5.86,0,0,0-.31.95,5.09,5.09,0,0,1-.38,1.11,1.63,1.63,0,0,1-.5.63,1.19,1.19,0,0,1-1.41-.11,1.67,1.67,0,0,1-.47-.75,3.2,3.2,0,0,1-.13-1.11,3.23,3.23,0,0,1,.26-1.21,1.73,1.73,0,0,1,.59-.72,1.25,1.25,0,0,1,.75-.23l0,.63a.91.91,0,0,0-.64.25,1.5,1.5,0,0,0-.34.59,2.53,2.53,0,0,0-.13.7,2.22,2.22,0,0,0,.1.82,1.07,1.07,0,0,0,.31.5A.7.7,0,0,0,262.29,150.6Z" transform="translate(-19.79 -19.94)"/>
    <path d="M260.55,155.2a2.54,2.54,0,0,1,.44-1.28,2.3,2.3,0,0,1,1-.82,2.54,2.54,0,0,1,1.3-.21l.2,0a2.64,2.64,0,0,1,1.32.46,2.4,2.4,0,0,1,.8,1,2.34,2.34,0,0,1,.2,1.22,2.44,2.44,0,0,1-.4,1.2,2,2,0,0,1-.89.68,2.66,2.66,0,0,1-1.21.15l-.34,0,.39-4.28.47.05-.34,3.65h.07a2,2,0,0,0,.81-.11,1.47,1.47,0,0,0,1-1.35,1.64,1.64,0,0,0-.17-1,1.76,1.76,0,0,0-.68-.7,2.32,2.32,0,0,0-1.06-.32l-.2,0a2,2,0,0,0-1,.15,1.93,1.93,0,0,0-.78.61,1.82,1.82,0,0,0-.36,1,2.23,2.23,0,0,0,.08.91,1.83,1.83,0,0,0,.46.74l-.3.37a2.17,2.17,0,0,1-.56-.82A2.48,2.48,0,0,1,260.55,155.2Z" transform="translate(-19.79 -19.94)"/>
    <path d="M266.8,163.67l-.09.62-7.09-1,.08-.58,1,.1Zm-4-4.56a3,3,0,0,1,1.31.46,2,2,0,0,1,.78.88,2.07,2.07,0,0,1,.14,1.2,2.29,2.29,0,0,1-.41,1.07,2.07,2.07,0,0,1-.81.63,3,3,0,0,1-1.11.21l-1.25-.18a2.57,2.57,0,0,1-.94-.5,2,2,0,0,1-.58-.83,2.36,2.36,0,0,1-.08-1.17,2,2,0,0,1,.49-1.1,2.11,2.11,0,0,1,1-.62,3.2,3.2,0,0,1,1.36-.07Zm-.19.6a2.93,2.93,0,0,0-1.07,0,1.51,1.51,0,0,0-1.23,1.32,2.15,2.15,0,0,0,.05.93,1.66,1.66,0,0,0,.4.65,2.08,2.08,0,0,0,.63.41l1.44.21a2.11,2.11,0,0,0,.52-.11,1.73,1.73,0,0,0,.51-.25,1.5,1.5,0,0,0,.43-.47,1.9,1.9,0,0,0,.24-.74,1.57,1.57,0,0,0-.13-1,1.65,1.65,0,0,0-.66-.65,2.77,2.77,0,0,0-1-.33Z" transform="translate(-19.79 -19.94)"/>
    <path d="M259.58,165.33a.41.41,0,0,1,.25.17.43.43,0,0,1,.05.34.45.45,0,0,1-.17.3.36.36,0,0,1-.3.07.37.37,0,0,1-.24-.17.48.48,0,0,1,0-.34.41.41,0,0,1,.17-.3A.4.4,0,0,1,259.58,165.33Z" transform="translate(-19.79 -19.94)"/>
    <path d="M258.63,177.25a2.6,2.6,0,0,1-1-.71,2.25,2.25,0,0,1-.49-1.11,3.41,3.41,0,0,1,.11-1.46,3,3,0,0,1,.75-1.37,2.61,2.61,0,0,1,1.3-.69,3.54,3.54,0,0,1,1.64.06l.83.22a3.44,3.44,0,0,1,1.46.76,2.47,2.47,0,0,1,.78,1.25,3,3,0,0,1,0,1.59,3.49,3.49,0,0,1-.61,1.3,2.31,2.31,0,0,1-1,.71,2.65,2.65,0,0,1-1.27.1l.16-.62a2.07,2.07,0,0,0,1.4-.28,2.19,2.19,0,0,0,.81-1.33,2.25,2.25,0,0,0,0-1.26,2.09,2.09,0,0,0-.66-1,3.07,3.07,0,0,0-1.24-.61l-.83-.22a3.15,3.15,0,0,0-1.35-.09,2.16,2.16,0,0,0-1.08.5,2.12,2.12,0,0,0-.63,1.08,2.76,2.76,0,0,0-.1,1.14,1.55,1.55,0,0,0,.38.83,2.34,2.34,0,0,0,.84.57Z" transform="translate(-19.79 -19.94)"/>
    <path d="M258.62,178.94a2.64,2.64,0,0,1,1.15.71,2.28,2.28,0,0,1,.58,1.12,2.48,2.48,0,0,1-.1,1.36,2.67,2.67,0,0,1-.73,1.18,2.32,2.32,0,0,1-1.13.56,2.75,2.75,0,0,1-1.35-.12l-.14,0a2.74,2.74,0,0,1-1.15-.71,2.24,2.24,0,0,1-.58-1.12,2.62,2.62,0,0,1,.1-1.37,2.66,2.66,0,0,1,.73-1.17,2.36,2.36,0,0,1,1.14-.56,2.71,2.71,0,0,1,1.34.11Zm-.34.55a2.49,2.49,0,0,0-1-.11,1.78,1.78,0,0,0-1.52,1.28,1.8,1.8,0,0,0-.05,1.07,1.84,1.84,0,0,0,.52.85,2.47,2.47,0,0,0,.9.53l.15,0a2.31,2.31,0,0,0,1,.1,1.82,1.82,0,0,0,.92-.37,1.77,1.77,0,0,0,.6-.9,1.76,1.76,0,0,0,.05-1.08,1.92,1.92,0,0,0-.52-.85,2.53,2.53,0,0,0-.9-.52Z" transform="translate(-19.79 -19.94)"/>
    <path d="M253.7,185.25l.22-.58,6.72,2.51-.22.58Z" transform="translate(-19.79 -19.94)"/>
    <path d="M252.64,188l.23-.58,6.65,2.68-.23.58Z" transform="translate(-19.79 -19.94)"/>
    <path d="M253.61,194.58a1,1,0,0,0,.93,0,1.62,1.62,0,0,0,.73-.87,2,2,0,0,0,.2-.77,1.31,1.31,0,0,0-.12-.64.82.82,0,0,0-.39-.39l.26-.57a1.07,1.07,0,0,1,.55.54,2.06,2.06,0,0,1,.19.93,3,3,0,0,1-.27,1.12,2.9,2.9,0,0,1-.61.9,1.59,1.59,0,0,1-.79.45,1.56,1.56,0,0,1-.95-.14l-2.22-1a2.66,2.66,0,0,0-.52-.19,1.78,1.78,0,0,0-.47-.07l0,0,.27-.61a1.59,1.59,0,0,1,.43.08,4.7,4.7,0,0,1,.45.17Zm-1-.26.51-1.13a3.19,3.19,0,0,0,.34-1.49.92.92,0,0,0-.53-.83.89.89,0,0,0-.78,0,1.38,1.38,0,0,0-.64.73,2.31,2.31,0,0,0-.23.91,2,2,0,0,0,.15.79,1.47,1.47,0,0,0,.42.58l-.41.11a1.46,1.46,0,0,1-.33-.42,2.16,2.16,0,0,1-.23-.62,2.67,2.67,0,0,1,0-.76,3,3,0,0,1,.24-.86,2.25,2.25,0,0,1,.57-.8,1.56,1.56,0,0,1,.73-.38,1.25,1.25,0,0,1,.76.09,1.33,1.33,0,0,1,.79,1.12,3.58,3.58,0,0,1-.39,1.9l-.53,1.19Z" transform="translate(-19.79 -19.94)"/>
    <path d="M249.35,200.82a3.18,3.18,0,0,1-1.07-.84,2.06,2.06,0,0,1-.47-1.07,2,2,0,0,1,.25-1.19,2.23,2.23,0,0,1,.75-.91,1.87,1.87,0,0,1,.95-.35,2.61,2.61,0,0,1,1.06.14l1.12.57a3,3,0,0,1,.77.83,1.91,1.91,0,0,1,.3,1,2.34,2.34,0,0,1-.29,1.12,2.22,2.22,0,0,1-.82.91,2.08,2.08,0,0,1-1.14.25,3.47,3.47,0,0,1-1.33-.4Zm.37-.52a3,3,0,0,0,1,.33,1.55,1.55,0,0,0,.91-.13,1.62,1.62,0,0,0,.68-.73,1.91,1.91,0,0,0,.23-.74,1.54,1.54,0,0,0-.07-.62,1.8,1.8,0,0,0-.28-.51,2.25,2.25,0,0,0-.36-.39l-1.29-.67a2.23,2.23,0,0,0-.73,0,1.64,1.64,0,0,0-.71.3,2,2,0,0,0-.59.72,1.47,1.47,0,0,0,.24,1.78,2.88,2.88,0,0,0,.86.64Zm5.61-.85-5.5-2.83-.86-.48.27-.53,6.38,3.28Z" transform="translate(-19.79 -19.94)"/>
    <path d="M248.69,202.27a2.69,2.69,0,0,1,1,.94,2.34,2.34,0,0,1,.33,1.21,2.58,2.58,0,0,1-.39,1.32,2.69,2.69,0,0,1-1,1,2.3,2.3,0,0,1-1.23.31,2.81,2.81,0,0,1-1.29-.4l-.13-.07a2.8,2.8,0,0,1-1-.93,2.28,2.28,0,0,1-.33-1.22,2.58,2.58,0,0,1,.39-1.32,2.69,2.69,0,0,1,1-1,2.28,2.28,0,0,1,1.22-.3,2.61,2.61,0,0,1,1.29.39Zm-.45.47a2.24,2.24,0,0,0-1-.33,1.92,1.92,0,0,0-1,.17,1.83,1.83,0,0,0-.78.76,1.86,1.86,0,0,0-.27,1,1.81,1.81,0,0,0,.33.94,2.36,2.36,0,0,0,.77.7l.13.08a2.31,2.31,0,0,0,1,.32,1.74,1.74,0,0,0,1-.17,1.66,1.66,0,0,0,.78-.75,1.8,1.8,0,0,0,.28-1,1.88,1.88,0,0,0-.34-.94,2.22,2.22,0,0,0-.76-.7Z" transform="translate(-19.79 -19.94)"/>
    <path d="M242.6,207.33l.34-.53,4.24,2.75-.34.52-.71-.44Zm2.76,4.17c0-.06.09-.11.13-.16l.12-.18a1.61,1.61,0,0,0,.3-.89,1.54,1.54,0,0,0-.22-.81,2.16,2.16,0,0,0-.63-.65l.07-.24a3.32,3.32,0,0,1,.88.82,1.72,1.72,0,0,1,0,2.08,1.39,1.39,0,0,1-.15.19l-.13.13Z" transform="translate(-19.79 -19.94)"/>
    <path d="M241.66,214.92a1,1,0,0,0,.91.19,1.67,1.67,0,0,0,.89-.7,2.14,2.14,0,0,0,.34-.72,1.35,1.35,0,0,0,0-.66.73.73,0,0,0-.31-.45l.37-.52a1.16,1.16,0,0,1,.43.65,2,2,0,0,1,0,.94,2.93,2.93,0,0,1-.49,1,2.81,2.81,0,0,1-.77.77,1.63,1.63,0,0,1-.86.28,1.57,1.57,0,0,1-.9-.32l-2-1.41a5.3,5.3,0,0,0-.47-.28,1.76,1.76,0,0,0-.45-.16l0,0,.39-.55a1.75,1.75,0,0,1,.4.16,4.28,4.28,0,0,1,.42.26Zm-.91-.45.72-1a3,3,0,0,0,.62-1.4.91.91,0,0,0-.35-.92A.87.87,0,0,0,241,211a1.39,1.39,0,0,0-.78.59,2.31,2.31,0,0,0-.39.85,1.86,1.86,0,0,0,0,.81,1.65,1.65,0,0,0,.3.64l-.42,0a1.54,1.54,0,0,1-.24-.48,2.21,2.21,0,0,1-.11-.65,2.55,2.55,0,0,1,.12-.75,2.4,2.4,0,0,1,.4-.8,2.28,2.28,0,0,1,.71-.68,1.47,1.47,0,0,1,.79-.23,1.23,1.23,0,0,1,.73.24,1.33,1.33,0,0,1,.56,1.25,3.67,3.67,0,0,1-.75,1.79l-.76,1.06Z" transform="translate(-19.79 -19.94)"/>
    <path d="M241.56,219.76l-4-3.14a1.15,1.15,0,0,0-.49-.24.56.56,0,0,0-.36.07,1.27,1.27,0,0,0-.27.25,2.17,2.17,0,0,0-.15.22,2,2,0,0,1-.12.21l-.38-.26a1.76,1.76,0,0,1,.14-.27,3.37,3.37,0,0,1,.21-.31,1.63,1.63,0,0,1,.49-.43.84.84,0,0,1,.59-.09,1.59,1.59,0,0,1,.73.36l4,3.14Zm-2.11-.14,1.75-2.25.36.28-1.75,2.25Z" transform="translate(-19.79 -19.94)"/>
    <path d="M234.24,218.74l.4-.48,3.9,3.21-.4.48Zm5.49,3.57a.36.36,0,0,1,.14.26.43.43,0,0,1-.12.32.42.42,0,0,1-.28.17.35.35,0,0,1-.28-.08.33.33,0,0,1-.13-.26.41.41,0,0,1,.12-.31.42.42,0,0,1,.28-.17A.35.35,0,0,1,239.73,222.31Z" transform="translate(-19.79 -19.94)"/>
    <path d="M234.3,226.38l-.43.49-2.37-4.94.31-.35.32.44ZM232,222.16l-.45-.27.3-.35L237,223.3l-.43.49Z" transform="translate(-19.79 -19.94)"/>
    <path d="M227.48,226.08a2.66,2.66,0,0,1,1.15-.71,2.25,2.25,0,0,1,1.26,0A2.38,2.38,0,0,1,231,226l.15.14a2.64,2.64,0,0,1,.73,1.19,2.47,2.47,0,0,1-1.67,3,1.86,1.86,0,0,1-1.12,0,2.7,2.7,0,0,1-1-.65l-.24-.24,3-3.07.34.33-2.57,2.62,0,0a1.72,1.72,0,0,0,.71.42,1.48,1.48,0,0,0,.81.05,1.56,1.56,0,0,0,.79-.48,1.68,1.68,0,0,0,.47-.85,1.81,1.81,0,0,0-.09-1,2.39,2.39,0,0,0-.61-.92l-.15-.14a2,2,0,0,0-.89-.53,1.79,1.79,0,0,0-1,0,1.91,1.91,0,0,0-.9.53,2.29,2.29,0,0,0-.5.75,1.94,1.94,0,0,0-.12.87l-.47.1a2.46,2.46,0,0,1,.09-1A2.72,2.72,0,0,1,227.48,226.08Z" transform="translate(-19.79 -19.94)"/>
    <path d="M225.1,229a.36.36,0,0,1,.1.28.48.48,0,0,1-.15.31.51.51,0,0,1-.32.14.38.38,0,0,1-.38-.4.52.52,0,0,1,.17-.3.46.46,0,0,1,.31-.14A.33.33,0,0,1,225.1,229Z" transform="translate(-19.79 -19.94)"/>
    <path d="M219.89,233.3l.3.39-1.33,1.09a2.81,2.81,0,0,0-.89,1.15,2.29,2.29,0,0,0-.14,1.29,2.84,2.84,0,0,0,.61,1.26l.4.49a2.86,2.86,0,0,0,1.12.85,2.23,2.23,0,0,0,1.28.11,2.84,2.84,0,0,0,1.27-.62l1.4-1.15.31.38-1.4,1.15a3.59,3.59,0,0,1-1.55.77,2.79,2.79,0,0,1-1.57-.1,3.12,3.12,0,0,1-1.36-1l-.39-.49a3.07,3.07,0,0,1-.71-1.52,2.76,2.76,0,0,1,.22-1.57,3.71,3.71,0,0,1,1.09-1.39Zm-.23.19.5-.41,4.31,5.26-.5.41Z" transform="translate(-19.79 -19.94)"/>
    <path d="M213.93,238l.51-.37,3,4.06-.49.36-.51-.66Zm1.13,4.87.18-.11.17-.12a1.59,1.59,0,0,0,.59-.72,1.5,1.5,0,0,0,.08-.84,2,2,0,0,0-.36-.83l.15-.2a3.22,3.22,0,0,1,.54,1.08,1.79,1.79,0,0,1,0,1,1.72,1.72,0,0,1-.69.9,1.37,1.37,0,0,1-.2.13l-.16.07Z" transform="translate(-19.79 -19.94)"/>
    <path d="M210.52,240.47l.52-.36,2.88,4.15-.51.35Zm4.32,4.93a.35.35,0,0,1,.06.28.44.44,0,0,1-.19.27.42.42,0,0,1-.33.09.38.38,0,0,1-.24-.15.36.36,0,0,1-.06-.28.52.52,0,0,1,.52-.36A.29.29,0,0,1,214.84,245.4Z" transform="translate(-19.79 -19.94)"/>
    <path d="M208.5,247.85l-.54.35-1-5.4.39-.25.19.52Zm-1.08-4.69-.37-.38.39-.25,4.52,3.1-.55.35Z" transform="translate(-19.79 -19.94)"/>
    <path d="M202,245.71a2.66,2.66,0,0,1,1.3-.38,2.46,2.46,0,0,1,1.22.31,2.55,2.55,0,0,1,.92,1l.1.17a2.57,2.57,0,0,1,.38,1.35,2.39,2.39,0,0,1-.33,1.21,2.3,2.3,0,0,1-.88.87,2.43,2.43,0,0,1-1.21.36,2,2,0,0,1-1.07-.33,2.59,2.59,0,0,1-.82-.91l-.17-.3,3.72-2.14.24.41-3.18,1.83,0,.06a1.86,1.86,0,0,0,.56.59,1.51,1.51,0,0,0,.77.26,1.54,1.54,0,0,0,.89-.24,1.58,1.58,0,0,0,.68-.7,1.79,1.79,0,0,0,.19-1,2.46,2.46,0,0,0-.35-1l-.1-.18a2.05,2.05,0,0,0-.71-.75,1.87,1.87,0,0,0-2,0,2.24,2.24,0,0,0-.69.59,1.87,1.87,0,0,0-.34.8l-.48,0a2.22,2.22,0,0,1,.35-.93A2.58,2.58,0,0,1,202,245.71Z" transform="translate(-19.79 -19.94)"/>
    <path d="M199.93,250.39a2.51,2.51,0,0,1,.2,1.11,2.19,2.19,0,0,1-.35,1.05,2.13,2.13,0,0,1-.89.78,2.21,2.21,0,0,1-.95.28,1.33,1.33,0,0,1-.83-.25,2.38,2.38,0,0,1-.68-.86L195,249.57l.56-.29,1.49,2.94a1.74,1.74,0,0,0,.51.66,1,1,0,0,0,.61.17,2.07,2.07,0,0,0,.69-.21,1.87,1.87,0,0,0,.62-.51,1.78,1.78,0,0,0,.3-.66,2,2,0,0,0,0-.69,1.7,1.7,0,0,0-.15-.59Zm-1.72-2.47.56-.29,2.28,4.51-.54.27-.51-.95Z" transform="translate(-19.79 -19.94)"/>
    <path d="M193.24,250.73a.39.39,0,0,1,0,.3.47.47,0,0,1-.24.24.44.44,0,0,1-.35,0,.38.38,0,0,1-.23-.2.37.37,0,0,1,0-.29.51.51,0,0,1,.26-.24.41.41,0,0,1,.34,0A.38.38,0,0,1,193.24,250.73Z" transform="translate(-19.79 -19.94)"/>
    <path d="M186.49,253.23l.6-.24,2.49,6.33-.6.23Z" transform="translate(-19.79 -19.94)"/>
    <path d="M185,257a2.41,2.41,0,0,1,0,1.13,2.14,2.14,0,0,1-1.47,1.65,2.37,2.37,0,0,1-1,.14,1.34,1.34,0,0,1-.79-.36,2.27,2.27,0,0,1-.55-.94l-1.07-3.11.59-.2,1.07,3.11a1.74,1.74,0,0,0,.43.72.88.88,0,0,0,.57.25,1.87,1.87,0,0,0,.71-.11,1.75,1.75,0,0,0,.69-.42,1.85,1.85,0,0,0,.39-.62,2,2,0,0,0,.13-.67,1.93,1.93,0,0,0-.07-.61Zm-1.37-2.68.6-.21,1.64,4.78-.57.19-.37-1Z" transform="translate(-19.79 -19.94)"/>
    <path d="M178.88,259a2.53,2.53,0,0,1,0,1.13,2.18,2.18,0,0,1-1.56,1.57,2.31,2.31,0,0,1-1,.08,1.26,1.26,0,0,1-.76-.4,2.17,2.17,0,0,1-.51-1l-.9-3.16.61-.18.9,3.17a1.66,1.66,0,0,0,.38.74.93.93,0,0,0,.56.29,1.82,1.82,0,0,0,.71-.08,1.77,1.77,0,0,0,.72-.38,2,2,0,0,0,.42-.59,2.28,2.28,0,0,0,.17-.67,2,2,0,0,0,0-.61Zm-1.22-2.75.6-.18,1.39,4.86-.58.16-.33-1Z" transform="translate(-19.79 -19.94)"/>
    <path d="M173.06,260.25a2.64,2.64,0,0,1,0,1.34,2.33,2.33,0,0,1-.66,1.08,2.85,2.85,0,0,1-2.61.59,2.34,2.34,0,0,1-1.06-.68,2.71,2.71,0,0,1-.6-1.21l0-.15a2.67,2.67,0,0,1,0-1.35,2.16,2.16,0,0,1,.65-1.07,2.85,2.85,0,0,1,2.61-.59,2.21,2.21,0,0,1,1.06.68,2.71,2.71,0,0,1,.6,1.21Zm-.64,0a2.37,2.37,0,0,0-.44-.95,1.81,1.81,0,0,0-.8-.6,1.86,1.86,0,0,0-1.08-.05,1.79,1.79,0,0,0-.95.51,1.91,1.91,0,0,0-.46.88,2.48,2.48,0,0,0,0,1.05l0,.15a2.26,2.26,0,0,0,.44.94,1.75,1.75,0,0,0,.8.6,1.77,1.77,0,0,0,1.08.06,1.76,1.76,0,0,0,1.4-1.4,2.28,2.28,0,0,0,0-1Z" transform="translate(-19.79 -19.94)"/>
    <path d="M163.36,264.71l-.64.11,1.23-5.34.46-.08,0,.54Zm.82-4.75-.18-.49.45-.08,3,4.61-.64.11Z" transform="translate(-19.79 -19.94)"/>
    <path d="M157.49,263.94a1,1,0,0,0,.48.8,1.61,1.61,0,0,0,1.11.18,2,2,0,0,0,.77-.23,1.38,1.38,0,0,0,.49-.43.81.81,0,0,0,.13-.54l.62-.07a1.11,1.11,0,0,1-.18.75,2,2,0,0,1-.69.64,2.85,2.85,0,0,1-1.1.35,3,3,0,0,1-1.09-.05,1.63,1.63,0,0,1-.79-.45,1.55,1.55,0,0,1-.38-.88l-.29-2.42a5,5,0,0,0-.11-.53,2.17,2.17,0,0,0-.19-.45v-.05l.66-.09a1.77,1.77,0,0,1,.15.41q.06.25.09.48Zm-.28-1,1.22-.15a3.21,3.21,0,0,0,1.46-.48.94.94,0,0,0,.44-.88.9.9,0,0,0-.43-.65,1.35,1.35,0,0,0-1-.18,2.5,2.5,0,0,0-.9.28,2,2,0,0,0-.6.54,1.53,1.53,0,0,0-.27.65l-.31-.29a1.42,1.42,0,0,1,.19-.5,1.92,1.92,0,0,1,.41-.51,2.26,2.26,0,0,1,.63-.43,2.71,2.71,0,0,1,.86-.24,2.38,2.38,0,0,1,1,.07,1.51,1.51,0,0,1,.7.43,1.29,1.29,0,0,1,.32.7,1.31,1.31,0,0,1-.55,1.25,3.58,3.58,0,0,1-1.83.66l-1.3.16Z" transform="translate(-19.79 -19.94)"/>
    <path d="M153.85,267.13l-.41-5.1a1,1,0,0,0-.14-.52.5.5,0,0,0-.3-.22,1.11,1.11,0,0,0-.37,0,2.06,2.06,0,0,0-.26,0l-.23,0-.07-.45a1.6,1.6,0,0,1,.3-.08l.36-.05a1.52,1.52,0,0,1,.65.07.89.89,0,0,1,.47.37,1.76,1.76,0,0,1,.22.78l.41,5.1Zm-1.32-1.66,2.84-.22,0,.46-2.84.22Z" transform="translate(-19.79 -19.94)"/>
    <path d="M149.67,261l.62,0,.26,5.05-.63,0Zm1.06,6.46a.33.33,0,0,1-.1.27.51.51,0,0,1-.63,0,.39.39,0,0,1-.13-.27.35.35,0,0,1,.1-.26.46.46,0,0,1,.31-.13.48.48,0,0,1,.33.1A.35.35,0,0,1,150.73,267.5Z" transform="translate(-19.79 -19.94)"/>
    <path d="M144.06,266.24h-.66l2-5.09h.46l-.11.53Zm1.54-4.56-.11-.52H146l2.21,5h-.65Z" transform="translate(-19.79 -19.94)"/>
    <path d="M139.68,261a2.74,2.74,0,0,1,1.3.36,2.3,2.3,0,0,1,.87.91,2.51,2.51,0,0,1,.29,1.29v.2a2.77,2.77,0,0,1-.38,1.35,2.46,2.46,0,0,1-2.13,1.13,2.4,2.4,0,0,1-1.22-.34,1.89,1.89,0,0,1-.73-.85,2.46,2.46,0,0,1-.22-1.2v-.34l4.29.15,0,.47-3.66-.13v.07a2,2,0,0,0,.16.8,1.51,1.51,0,0,0,.52.63,1.61,1.61,0,0,0,.88.27,1.68,1.68,0,0,0,1-.24,1.74,1.74,0,0,0,.66-.71,2.46,2.46,0,0,0,.26-1.08v-.2a2.17,2.17,0,0,0-.21-1,1.81,1.81,0,0,0-.66-.74,1.79,1.79,0,0,0-1-.31,2.13,2.13,0,0,0-.9.14,1.78,1.78,0,0,0-.71.5l-.39-.28a2.21,2.21,0,0,1,.78-.61A2.64,2.64,0,0,1,139.68,261Z" transform="translate(-19.79 -19.94)"/>
    <path d="M135.89,261.24a.34.34,0,0,1-.14.26.43.43,0,0,1-.33.09.45.45,0,0,1-.32-.14.4.4,0,0,1-.1-.28.38.38,0,0,1,.14-.26.52.52,0,0,1,.34-.08.43.43,0,0,1,.31.13A.33.33,0,0,1,135.89,261.24Z" transform="translate(-19.79 -19.94)"/>
    <path d="M128.73,260.18l.64.09-.86,6.74-.64-.08Z" transform="translate(-19.79 -19.94)"/>
    <path d="M125.65,262.78a2.48,2.48,0,0,1-.51,1,2.16,2.16,0,0,1-.9.64,2.21,2.21,0,0,1-1.18.1,2.32,2.32,0,0,1-.93-.35,1.33,1.33,0,0,1-.52-.69,2.47,2.47,0,0,1,0-1.1l.55-3.24.62.11-.55,3.24a1.76,1.76,0,0,0,0,.84.91.91,0,0,0,.39.49,1.77,1.77,0,0,0,.67.25,1.67,1.67,0,0,0,.81,0,1.93,1.93,0,0,0,.63-.35,2.23,2.23,0,0,0,.45-.53,1.85,1.85,0,0,0,.22-.57Zm.08-3,.62.11-.84,5-.6-.1.16-1.07Z" transform="translate(-19.79 -19.94)"/>
    <path d="M118,258.67a2,2,0,0,0-.76,0,1.56,1.56,0,0,0-.65.26,1,1,0,0,0-.39.58l-.59-.13a1.39,1.39,0,0,1,.51-.77,2.06,2.06,0,0,1,.9-.4,2.47,2.47,0,0,1,1.08,0,2.4,2.4,0,0,1,1.23.62,2.16,2.16,0,0,1,.6,1.06,2.91,2.91,0,0,1,0,1.31l0,.19a3,3,0,0,1-.55,1.19,2.12,2.12,0,0,1-1,.7,2.51,2.51,0,0,1-1.37,0,2.79,2.79,0,0,1-1-.45,2,2,0,0,1-.62-.78,1.68,1.68,0,0,1-.1-1l.59.13a1.22,1.22,0,0,0,.08.74,1.25,1.25,0,0,0,.45.57,2,2,0,0,0,1.8.27,1.66,1.66,0,0,0,.73-.61,2.92,2.92,0,0,0,.39-.94l0-.19a2.72,2.72,0,0,0,.05-1,1.6,1.6,0,0,0-.4-.86A1.65,1.65,0,0,0,118,258.67Z" transform="translate(-19.79 -19.94)"/>
    <path d="M113.62,257.19l.61.16-1.84,6.93-.6-.15Z" transform="translate(-19.79 -19.94)"/>
    <path d="M106.53,260.38l-.6-.19,1.49-4.82.58.18-.33,1.12Zm.44-2.94a2.85,2.85,0,0,1,.55-1,1.76,1.76,0,0,1,.92-.54,2.59,2.59,0,0,1,1.32.11,2,2,0,0,1,1.16.82,1.86,1.86,0,0,1,.06,1.56l-1,3.09-.6-.19.95-3.1a1.68,1.68,0,0,0,.08-.86,1,1,0,0,0-.32-.56,1.68,1.68,0,0,0-.59-.32,2.25,2.25,0,0,0-1.12-.09,1.35,1.35,0,0,0-.73.43,2.07,2.07,0,0,0-.41.76Z" transform="translate(-19.79 -19.94)"/>
    <path d="M101.84,254.75a.74.74,0,0,0,0,.42,1.15,1.15,0,0,0,.29.5,3.73,3.73,0,0,0,.8.6,6.17,6.17,0,0,1,.91.64,1.63,1.63,0,0,1,.48.65,1,1,0,0,1,0,.72,1.12,1.12,0,0,1-.46.57,1.72,1.72,0,0,1-.82.22,2.7,2.7,0,0,1-1.07-.19,2.93,2.93,0,0,1-1-.57,1.74,1.74,0,0,1-.49-.75,1.25,1.25,0,0,1,0-.81l.6.21a.9.9,0,0,0,.11.8,1.59,1.59,0,0,0,.9.68,2.13,2.13,0,0,0,.79.15,1,1,0,0,0,.54-.17.69.69,0,0,0,.27-.34.71.71,0,0,0,0-.41,1.07,1.07,0,0,0-.31-.45,5.44,5.44,0,0,0-.81-.58,5.21,5.21,0,0,1-.94-.7,1.59,1.59,0,0,1-.45-.67,1.16,1.16,0,0,1,0-.71,1.14,1.14,0,0,1,.5-.6,1.63,1.63,0,0,1,.85-.22,3.68,3.68,0,0,1,2.17.83,1.81,1.81,0,0,1,.51.78,1.25,1.25,0,0,1,0,.79l-.59-.22a.88.88,0,0,0,0-.68,1.31,1.31,0,0,0-.46-.51,2.71,2.71,0,0,0-.63-.33,2.36,2.36,0,0,0-.8-.16,1.13,1.13,0,0,0-.58.15A.72.72,0,0,0,101.84,254.75Z" transform="translate(-19.79 -19.94)"/>
    <path d="M97.51,258.64a.36.36,0,0,1-.21.21.52.52,0,0,1-.59-.24.37.37,0,0,1,0-.29.35.35,0,0,1,.21-.2.43.43,0,0,1,.33,0,.46.46,0,0,1,.25.22A.39.39,0,0,1,97.51,258.64Zm1.79-6.3.57.24L98,257.25l-.58-.24Z" transform="translate(-19.79 -19.94)"/>
    <path d="M92,254.65l-.59-.27,4-3.72.42.19-.33.44Zm3.35-3.46.12-.51.42.19-.15,5.48-.59-.27Z" transform="translate(-19.79 -19.94)"/>
    <path d="M90.29,248.06a2.62,2.62,0,0,1,1,.89,2.33,2.33,0,0,1,.41,1.19,2.54,2.54,0,0,1-.3,1.29l-.09.18a2.61,2.61,0,0,1-.92,1,2.37,2.37,0,0,1-2.41.12,2.4,2.4,0,0,1-1-.83,1.93,1.93,0,0,1-.3-1.07,2.61,2.61,0,0,1,.32-1.18l.15-.31,3.82,2-.21.42-3.26-1.68,0,.06a1.85,1.85,0,0,0-.2.79,1.48,1.48,0,0,0,.2.79,1.56,1.56,0,0,0,.69.62,1.62,1.62,0,0,0,1,.19,1.69,1.69,0,0,0,.9-.36,2.52,2.52,0,0,0,.7-.86l.09-.18a2.19,2.19,0,0,0,.25-1,1.87,1.87,0,0,0-1.06-1.66,2.07,2.07,0,0,0-.86-.26,2,2,0,0,0-.86.14l-.24-.41a2.27,2.27,0,0,1,1-.22A2.61,2.61,0,0,1,90.29,248.06Z" transform="translate(-19.79 -19.94)"/>
    <path d="M86.75,246.65a.37.37,0,0,1-.24.18.4.4,0,0,1-.33-.06.5.5,0,0,1-.24-.26.39.39,0,0,1,.27-.48.48.48,0,0,1,.34.07.44.44,0,0,1,.23.26A.37.37,0,0,1,86.75,246.65Z" transform="translate(-19.79 -19.94)"/>
    <path d="M75.64,247.43a3.76,3.76,0,0,1-1-1,1.93,1.93,0,0,1-.38-1.06,1.84,1.84,0,0,1,.34-1.09,1.67,1.67,0,0,1,.67-.6,1.87,1.87,0,0,1,.88-.2,2.42,2.42,0,0,1,1,.21l.23.06,2.21,1.46-.26.41-1.84-1.22a2.18,2.18,0,0,0-1-.38,1.49,1.49,0,0,0-.8.12,1.38,1.38,0,0,0-.57.5,1.31,1.31,0,0,0-.19,1.19,2.24,2.24,0,0,0,1,1.14l1.53,1,3.48-5.26.54.36-3.75,5.67Zm1.86-3.28-.58-.38V240.2l0,0,.58.38Z" transform="translate(-19.79 -19.94)"/>
    <path d="M73.87,237.75a2.76,2.76,0,0,1,.86,1.05,2.41,2.41,0,0,1,.2,1.24,2.46,2.46,0,0,1-.51,1.22l-.12.16a2.67,2.67,0,0,1-1.08.89,2.37,2.37,0,0,1-2.39-.29,2.36,2.36,0,0,1-.81-1,1.92,1.92,0,0,1-.12-1.11,2.63,2.63,0,0,1,.51-1.12l.2-.27,3.44,2.57-.28.38-2.94-2.2,0,.06a1.92,1.92,0,0,0-.32.75,1.5,1.5,0,0,0,.07.81,1.48,1.48,0,0,0,.57.72A1.69,1.69,0,0,0,72,242a1.79,1.79,0,0,0,1-.21,2.46,2.46,0,0,0,.83-.73l.12-.16a2.14,2.14,0,0,0,.41-1,1.86,1.86,0,0,0-.12-1,1.77,1.77,0,0,0-.65-.82,2.19,2.19,0,0,0-.81-.4,1.83,1.83,0,0,0-.87,0l-.16-.45a2.3,2.3,0,0,1,1-.05A2.64,2.64,0,0,1,73.87,237.75Z" transform="translate(-19.79 -19.94)"/>
    <path d="M70.44,235.21l-3.59,4.4a1.48,1.48,0,0,1-1.09.63,1.73,1.73,0,0,1-1.21-.46l-.25-.22a2.75,2.75,0,0,1-.22-.26l.33-.33.18.2.23.21a1.15,1.15,0,0,0,.81.28,1.1,1.1,0,0,0,.74-.44L70,234.81ZM66,237.52l2.27,1.84-.29.35-2.27-1.84Z" transform="translate(-19.79 -19.94)"/>
    <path d="M67.15,232.45l.47.41-4.69,5.42-.47-.41Z" transform="translate(-19.79 -19.94)"/>
    <path d="M63.94,229.43a2.67,2.67,0,0,1,.75,1.13,2.45,2.45,0,0,1,.06,1.26,2.58,2.58,0,0,1-.64,1.16l-.13.14a2.69,2.69,0,0,1-1.18.76,2.31,2.31,0,0,1-1.25,0,2.55,2.55,0,0,1-1.79-1.64,1.94,1.94,0,0,1,0-1.12,2.63,2.63,0,0,1,.63-1l.23-.25,3.14,2.93-.32.35-2.68-2.5,0,0a1.9,1.9,0,0,0-.4.72,1.48,1.48,0,0,0,0,.81,1.51,1.51,0,0,0,.49.78,1.67,1.67,0,0,0,.86.45,1.81,1.81,0,0,0,1-.11,2.53,2.53,0,0,0,.91-.64l.13-.14a2.15,2.15,0,0,0,.52-.91,2,2,0,0,0,0-1,2,2,0,0,0-.56-.89,2.25,2.25,0,0,0-.76-.48,1.8,1.8,0,0,0-.87-.09l-.11-.47a2.43,2.43,0,0,1,1,.06A2.52,2.52,0,0,1,63.94,229.43Z" transform="translate(-19.79 -19.94)"/>
    <path d="M59.43,225.65a2,2,0,0,0-.61-.44,1.43,1.43,0,0,0-.69-.14,1.09,1.09,0,0,0-.65.26l-.42-.43a1.48,1.48,0,0,1,.85-.36,2.09,2.09,0,0,1,1,.16,2.52,2.52,0,0,1,.89.62,2.45,2.45,0,0,1,.69,1.19,2.17,2.17,0,0,1-.08,1.21,3,3,0,0,1-.74,1.09l-.14.14a2.86,2.86,0,0,1-1.11.69,2.08,2.08,0,0,1-1.21,0A2.46,2.46,0,0,1,56,229a2.64,2.64,0,0,1-.6-.93,1.89,1.89,0,0,1-.09-1,1.7,1.7,0,0,1,.46-.9l.42.44a1.24,1.24,0,0,0-.34.66,1.37,1.37,0,0,0,.07.72,1.75,1.75,0,0,0,.42.68,1.8,1.8,0,0,0,.93.54,1.6,1.6,0,0,0,.94-.11,2.76,2.76,0,0,0,.85-.57l.14-.14a2.66,2.66,0,0,0,.6-.83,1.6,1.6,0,0,0,.14-.94A1.69,1.69,0,0,0,59.43,225.65Z" transform="translate(-19.79 -19.94)"/>
    <path d="M51.64,226l3.83-3.4a1.27,1.27,0,0,0,.33-.43.52.52,0,0,0,0-.37,1.13,1.13,0,0,0-.19-.31l-.2-.19-.17-.15.32-.33a1.16,1.16,0,0,1,.24.19,2.13,2.13,0,0,1,.26.26,1.72,1.72,0,0,1,.34.55.89.89,0,0,1,0,.6,1.52,1.52,0,0,1-.49.65l-3.82,3.4Zm.53-2.05,1.89,2.13-.34.31-1.89-2.13Z" transform="translate(-19.79 -19.94)"/>
    <path d="M49.46,223.75a.4.4,0,0,1-.28.08.44.44,0,0,1-.29-.17.51.51,0,0,1-.12-.31.35.35,0,0,1,.13-.26.32.32,0,0,1,.28-.08.42.42,0,0,1,.28.17.41.41,0,0,1,.12.31A.36.36,0,0,1,49.46,223.75ZM54,219l.41.48-3.87,3.24-.41-.48Z" transform="translate(-19.79 -19.94)"/>
    <path d="M46.45,217.66l-.4-.51,5.29-1.43.28.37-.49.23Zm4.57-1.5.35-.4.28.36L49,220.91l-.4-.52Z" transform="translate(-19.79 -19.94)"/>
    <path d="M48,211a2.6,2.6,0,0,1,.49,1.26,2.37,2.37,0,0,1-.19,1.24,2.46,2.46,0,0,1-.87,1l-.16.11a2.54,2.54,0,0,1-1.3.5,2.28,2.28,0,0,1-1.24-.22,2.35,2.35,0,0,1-.95-.79,2.46,2.46,0,0,1-.46-1.18,2,2,0,0,1,.23-1.09,2.53,2.53,0,0,1,.83-.9l.28-.2,2.47,3.52-.39.27-2.11-3,0,0a1.88,1.88,0,0,0-.54.62,1.43,1.43,0,0,0-.19.79,1.55,1.55,0,0,0,.32.86,1.63,1.63,0,0,0,.76.62,1.82,1.82,0,0,0,1,.1,2.66,2.66,0,0,0,1-.44l.16-.12a2,2,0,0,0,.69-.78,1.84,1.84,0,0,0,.2-1,1.87,1.87,0,0,0-.36-1,2.15,2.15,0,0,0-.65-.63,1.85,1.85,0,0,0-.83-.27v-.48a2.38,2.38,0,0,1,1,.26A2.51,2.51,0,0,1,48,211Z" transform="translate(-19.79 -19.94)"/>
    <path d="M45.52,208.14a.34.34,0,0,1-.29.05A.39.39,0,0,1,45,208a.45.45,0,0,1-.09-.34.37.37,0,0,1,.17-.25.33.33,0,0,1,.29,0,.5.5,0,0,1,.27.22.45.45,0,0,1,.08.33A.36.36,0,0,1,45.52,208.14Z" transform="translate(-19.79 -19.94)"/>
    <path d="M35.3,203.65a3.73,3.73,0,0,1-.46-1.32,2,2,0,0,1,.16-1.11,1.95,1.95,0,0,1,1.68-1,2.09,2.09,0,0,1,.87.23,2.58,2.58,0,0,1,.77.64l.17.16,1.28,2.32-.42.25-1.07-1.94a2.17,2.17,0,0,0-.66-.78,1.45,1.45,0,0,0-.77-.26,1.47,1.47,0,0,0-.74.17,1.36,1.36,0,0,0-.72,1,2.24,2.24,0,0,0,.34,1.46l.89,1.61,5.52-3,.31.57-6,3.27Zm3.17-2-.34-.6,1.67-3.17.05,0,.33.61Z" transform="translate(-19.79 -19.94)"/>
    <path d="M38.24,194.28a2.67,2.67,0,0,1,.28,1.32,2.42,2.42,0,0,1-.4,1.2,2.54,2.54,0,0,1-1,.85l-.18.08a2.53,2.53,0,0,1-1.36.28,2.43,2.43,0,0,1-1.19-.42,2.35,2.35,0,0,1-.8-.94,2.43,2.43,0,0,1-.27-1.24,2,2,0,0,1,.41-1,2.55,2.55,0,0,1,1-.75l.31-.15,1.85,3.88-.42.2-1.59-3.31-.06,0a1.87,1.87,0,0,0-.63.52,1.45,1.45,0,0,0-.32.75,1.77,1.77,0,0,0,.82,1.63,1.76,1.76,0,0,0,.93.26,2.46,2.46,0,0,0,1.08-.27l.18-.08a2,2,0,0,0,.81-.66,2,2,0,0,0,.36-.93,1.9,1.9,0,0,0-.2-1,2.15,2.15,0,0,0-.53-.73,1.81,1.81,0,0,0-.78-.4l.07-.48a2.29,2.29,0,0,1,.9.42A2.53,2.53,0,0,1,38.24,194.28Z" transform="translate(-19.79 -19.94)"/>
    <path d="M34.06,188.23a.88.88,0,0,0-.33.26,1.12,1.12,0,0,0-.17.55,3.67,3.67,0,0,0,.11,1,5.33,5.33,0,0,1,.14,1.1,1.57,1.57,0,0,1-.15.79,1,1,0,0,1-.54.48,1.07,1.07,0,0,1-.73,0,1.55,1.55,0,0,1-.72-.44,2.92,2.92,0,0,1-.59-.91,3.13,3.13,0,0,1-.25-1.12,1.61,1.61,0,0,1,.22-.87,1.24,1.24,0,0,1,.62-.53l.24.59a.91.91,0,0,0-.51.62,1.66,1.66,0,0,0,.12,1.13,1.94,1.94,0,0,0,.43.67.93.93,0,0,0,.48.28.63.63,0,0,0,.43,0,.66.66,0,0,0,.33-.26,1.12,1.12,0,0,0,.12-.53,5.85,5.85,0,0,0-.12-1,4.77,4.77,0,0,1-.13-1.16,1.5,1.5,0,0,1,.19-.78,1,1,0,0,1,.54-.46,1.17,1.17,0,0,1,.78,0,1.69,1.69,0,0,1,.74.48,3.2,3.2,0,0,1,.59,1,3,3,0,0,1,.28,1.2,1.83,1.83,0,0,1-.23.91,1.24,1.24,0,0,1-.59.52l-.24-.58a.88.88,0,0,0,.47-.5,1.39,1.39,0,0,0,.06-.68,2.7,2.7,0,0,0-.18-.69,2.21,2.21,0,0,0-.43-.69,1.15,1.15,0,0,0-.5-.33A.72.72,0,0,0,34.06,188.23Z" transform="translate(-19.79 -19.94)"/>
    <path d="M28.27,187.72a.41.41,0,0,1-.29,0,.48.48,0,0,1-.22-.26.44.44,0,0,1,0-.34.38.38,0,0,1,.21-.2.34.34,0,0,1,.28,0,.38.38,0,0,1,.21.26.42.42,0,0,1,0,.33A.36.36,0,0,1,28.27,187.72Zm5.84-3,.22.58L29.6,187.1l-.22-.58Z" transform="translate(-19.79 -19.94)"/>
    <path d="M33.12,182l.2.59-6.78,2.34-.2-.59Z" transform="translate(-19.79 -19.94)"/>
    <path d="M26.22,181.86a.37.37,0,0,1-.29,0,.44.44,0,0,1-.2-.27.42.42,0,0,1,0-.33A.34.34,0,0,1,26,181a.37.37,0,0,1,.29,0,.43.43,0,0,1,.19.27.41.41,0,0,1,0,.33A.31.31,0,0,1,26.22,181.86Zm6-2.67.18.59-4.81,1.53-.19-.59Z" transform="translate(-19.79 -19.94)"/>
    <path d="M31.06,175a2.74,2.74,0,0,1,0,1.36,2.35,2.35,0,0,1-.61,1.1,2.38,2.38,0,0,1-1.15.65l-.19.06a2.54,2.54,0,0,1-1.39,0,2.49,2.49,0,0,1-1.76-3,1.93,1.93,0,0,1,.59-1,2.66,2.66,0,0,1,1.08-.57l.33-.09,1.14,4.14-.46.13-1-3.53h-.06a2.12,2.12,0,0,0-.72.4,1.51,1.51,0,0,0-.45.68,1.69,1.69,0,0,0,0,.92,1.68,1.68,0,0,0,1.39,1.25,2.46,2.46,0,0,0,1.1-.07l.2,0a2.09,2.09,0,0,0,.91-.51,1.77,1.77,0,0,0,.51-.85,1.87,1.87,0,0,0,0-1,2.2,2.2,0,0,0-.4-.81,1.93,1.93,0,0,0-.69-.53l.15-.46a2.23,2.23,0,0,1,.81.57A2.57,2.57,0,0,1,31.06,175Z" transform="translate(-19.79 -19.94)"/>
    <path d="M27.06,171.76a2.38,2.38,0,0,1-1.13-.09A2.17,2.17,0,0,1,24.46,170a2.39,2.39,0,0,1,0-1,1.4,1.4,0,0,1,.45-.74,2.25,2.25,0,0,1,1-.44l3.2-.71.14.62-3.21.7a1.78,1.78,0,0,0-.77.34,1,1,0,0,0-.32.54,1.79,1.79,0,0,0,0,.72,1.77,1.77,0,0,0,.34.73,1.68,1.68,0,0,0,.57.46,2,2,0,0,0,.65.21,2.07,2.07,0,0,0,.61,0Zm2.82-1,.13.62-4.93,1.08-.13-.59,1.05-.25Z" transform="translate(-19.79 -19.94)"/>
    <path d="M22.3,165.22l5-.87a1.11,1.11,0,0,0,.51-.2.54.54,0,0,0,.19-.31,1.15,1.15,0,0,0,0-.37,2,2,0,0,0-.07-.26c0-.08,0-.16-.07-.23l.45-.1a2,2,0,0,1,.11.28c0,.12.06.24.08.36a1.56,1.56,0,0,1,0,.65.8.8,0,0,1-.33.5,1.63,1.63,0,0,1-.75.3l-5,.87Zm1.53-1.46.48,2.81-.45.07-.48-2.8Z" transform="translate(-19.79 -19.94)"/>
    <path d="M27.75,161.29a.34.34,0,0,1-.29-.08.42.42,0,0,1-.15-.3.47.47,0,0,1,.06-.34.37.37,0,0,1,.26-.16.32.32,0,0,1,.28.08.48.48,0,0,1,.15.31.47.47,0,0,1-.06.34A.35.35,0,0,1,27.75,161.29Z" transform="translate(-19.79 -19.94)"/>
    <path d="M20.68,150.7,21,155l-.49,0-.31-4.26Zm6.59,3.59,0,.64-6.77.51-.05-.64ZM23.75,151l.28,3.75-.49,0L23.26,151ZM27,150.2l.32,4.28-.48,0-.32-4.28Z" transform="translate(-19.79 -19.94)"/>
    <path d="M23.91,148.42a2.41,2.41,0,0,1-1.09-.31,2.18,2.18,0,0,1-.8-.77,2.11,2.11,0,0,1-.31-1.14,2.3,2.3,0,0,1,.16-1,1.36,1.36,0,0,1,.58-.63,2.33,2.33,0,0,1,1.08-.24l3.28-.06v.62l-3.29.07a1.77,1.77,0,0,0-.81.18.91.91,0,0,0-.42.47,1.74,1.74,0,0,0-.11.71,1.8,1.8,0,0,0,.19.79,1.78,1.78,0,0,0,.46.55,2.16,2.16,0,0,0,.61.34,1.66,1.66,0,0,0,.6.11Zm3-.48v.63l-5,.1v-.6l1.07,0Z" transform="translate(-19.79 -19.94)"/>
    <path d="M20.52,141.1l5.11.11a1,1,0,0,0,.54-.09.52.52,0,0,0,.24-.27.86.86,0,0,0,.07-.36,2.26,2.26,0,0,0,0-.27,2.32,2.32,0,0,1,0-.24h.46c0,.07,0,.17.05.3s0,.24,0,.36a1.78,1.78,0,0,1-.13.64,1,1,0,0,1-.42.43,1.69,1.69,0,0,1-.8.14l-5.12-.11ZM22.3,140l-.07,2.84h-.45l.06-2.84Z" transform="translate(-19.79 -19.94)"/>
    <path d="M27,137.67l0,.62-7.16-.47.05-.62Zm-3,.22a2.39,2.39,0,0,1-1.06-.4,2.05,2.05,0,0,1-.73-.84,2.12,2.12,0,0,1-.22-1.16,2.26,2.26,0,0,1,.25-1,1.32,1.32,0,0,1,.63-.58A2.25,2.25,0,0,1,24,133.8l3.28.22,0,.63-3.29-.22a1.73,1.73,0,0,0-.83.11.94.94,0,0,0-.45.43,1.85,1.85,0,0,0-.17.7,1.71,1.71,0,0,0,.12.8,1.78,1.78,0,0,0,.41.59,2,2,0,0,0,.58.39,1.72,1.72,0,0,0,.58.17Z" transform="translate(-19.79 -19.94)"/>
    <path d="M25.81,127.69a2.7,2.7,0,0,1,1.1.36,1.72,1.72,0,0,1,.69.81,2.57,2.57,0,0,1,.13,1.31,2,2,0,0,1-.6,1.29,1.83,1.83,0,0,1-1.52.34l-3.21-.39.08-.62,3.21.38a1.69,1.69,0,0,0,.87-.07,1.07,1.07,0,0,0,.49-.42,1.67,1.67,0,0,0,.21-.64,2.12,2.12,0,0,0-.11-1.11,1.33,1.33,0,0,0-.56-.65,2,2,0,0,0-.81-.26Zm-3,.09.07-.63,5,.61-.08.6-1.16-.12Z" transform="translate(-19.79 -19.94)"/>
    <path d="M27.54,122.15a.78.78,0,0,0-.42,0,1.05,1.05,0,0,0-.43.38,3.45,3.45,0,0,0-.45.89,6.45,6.45,0,0,1-.47,1,1.76,1.76,0,0,1-.55.59,1,1,0,0,1-.72.11,1.07,1.07,0,0,1-.64-.36,1.69,1.69,0,0,1-.37-.76,2.79,2.79,0,0,1,0-1.08,2.86,2.86,0,0,1,.38-1.08,1.69,1.69,0,0,1,.66-.62,1.29,1.29,0,0,1,.8-.11l-.11.62a.94.94,0,0,0-.76.25,1.6,1.6,0,0,0-.51,1,2.13,2.13,0,0,0,0,.8,1,1,0,0,0,.26.49.69.69,0,0,0,.79.16.92.92,0,0,0,.39-.38,5,5,0,0,0,.43-.89,5.54,5.54,0,0,1,.51-1.06,1.7,1.7,0,0,1,.58-.56,1.2,1.2,0,0,1,.71-.09,1.16,1.16,0,0,1,.68.38,1.69,1.69,0,0,1,.37.81,3,3,0,0,1,0,1.12,3.16,3.16,0,0,1-.41,1.16,1.79,1.79,0,0,1-.68.64,1.24,1.24,0,0,1-.77.13l.1-.62a.85.85,0,0,0,.66-.17,1.54,1.54,0,0,0,.43-.54,2.81,2.81,0,0,0,.21-.68,2.06,2.06,0,0,0,0-.82,1.13,1.13,0,0,0-.25-.54A.61.61,0,0,0,27.54,122.15Z" transform="translate(-19.79 -19.94)"/>
    <path d="M22.93,118.59a.36.36,0,0,1-.24-.16.45.45,0,0,1,0-.33.49.49,0,0,1,.17-.29.38.38,0,0,1,.29-.06.33.33,0,0,1,.23.17.41.41,0,0,1,0,.33.45.45,0,0,1-.17.29A.32.32,0,0,1,22.93,118.59Zm6.52.64-.13.61-4.94-1,.13-.61Z" transform="translate(-19.79 -19.94)"/>
    <path d="M27.36,112.87a1.09,1.09,0,0,0-.92.16,1.7,1.7,0,0,0-.57,1,2.23,2.23,0,0,0-.06.8,1.39,1.39,0,0,0,.23.61.79.79,0,0,0,.45.32l-.16.61a1.1,1.1,0,0,1-.63-.44,2.11,2.11,0,0,1-.35-.88,2.93,2.93,0,0,1,.08-1.16,2.81,2.81,0,0,1,.44-1,1.56,1.56,0,0,1,.71-.57,1.52,1.52,0,0,1,1,0l2.36.6a4.34,4.34,0,0,0,.54.09,2.44,2.44,0,0,0,.48,0H31l-.16.65a2.13,2.13,0,0,1-.43,0,3.41,3.41,0,0,1-.48-.09Zm1,.1-.3,1.19a3.16,3.16,0,0,0-.08,1.53.94.94,0,0,0,.66.73.88.88,0,0,0,.76-.16,1.35,1.35,0,0,0,.51-.83,2.37,2.37,0,0,0,.07-.94,1.92,1.92,0,0,0-.28-.75,1.52,1.52,0,0,0-.51-.5l.38-.18a1.47,1.47,0,0,1,.4.36,2,2,0,0,1,.33.56,2.43,2.43,0,0,1,.16.75,2.69,2.69,0,0,1-.5,1.78,1.55,1.55,0,0,1-.66.49,1.16,1.16,0,0,1-.76,0,1.3,1.3,0,0,1-1-1,3.58,3.58,0,0,1,.05-1.94l.32-1.27Z" transform="translate(-19.79 -19.94)"/>
    <path d="M31.27,107.47a.85.85,0,0,0-.42,0,1.13,1.13,0,0,0-.49.32,3.89,3.89,0,0,0-.56.83,5.28,5.28,0,0,1-.59.94,1.59,1.59,0,0,1-.62.51,1.07,1.07,0,0,1-.73,0,1.1,1.1,0,0,1-.58-.44,1.62,1.62,0,0,1-.27-.8,2.8,2.8,0,0,1,.13-1.08,3.09,3.09,0,0,1,.52-1,1.65,1.65,0,0,1,.73-.53,1.21,1.21,0,0,1,.82,0l-.19.6a1,1,0,0,0-.8.15,1.64,1.64,0,0,0-.63.94,2,2,0,0,0-.1.8,1,1,0,0,0,.19.52.72.72,0,0,0,.35.26.75.75,0,0,0,.42,0,.93.93,0,0,0,.43-.32,5.64,5.64,0,0,0,.54-.84,5.35,5.35,0,0,1,.65-1,1.61,1.61,0,0,1,.64-.48,1.11,1.11,0,0,1,.72,0,1.18,1.18,0,0,1,.63.47,1.7,1.7,0,0,1,.25.84,3.22,3.22,0,0,1-.15,1.11,3.07,3.07,0,0,1-.57,1.1,1.73,1.73,0,0,1-.75.55,1.26,1.26,0,0,1-.79,0l.19-.6a.92.92,0,0,0,.68-.08,1.5,1.5,0,0,0,.48-.49,2.42,2.42,0,0,0,.31-.65,2.22,2.22,0,0,0,.11-.81,1.2,1.2,0,0,0-.17-.57A.77.77,0,0,0,31.27,107.47Z" transform="translate(-19.79 -19.94)"/>
    <path d="M27.65,102.45l4.82,1.72a1.26,1.26,0,0,0,.53.08.53.53,0,0,0,.32-.18,1,1,0,0,0,.18-.33,2.58,2.58,0,0,0,.08-.26c0-.08,0-.16.05-.23l.44.13a1.33,1.33,0,0,1,0,.3c0,.12-.06.24-.1.36a1.63,1.63,0,0,1-.33.56.82.82,0,0,1-.53.27,1.65,1.65,0,0,1-.81-.11L27.44,103Zm2.05-.53-1,2.69-.43-.16,1-2.68Z" transform="translate(-19.79 -19.94)"/>
    <path d="M28.59,99.43a.32.32,0,0,1-.21-.2.43.43,0,0,1,0-.33.43.43,0,0,1,.21-.26.37.37,0,0,1,.29,0,.36.36,0,0,1,.21.21.43.43,0,0,1,0,.33.42.42,0,0,1-.22.25A.31.31,0,0,1,28.59,99.43Zm6.33,1.69-.22.58L30,99.86l.23-.58Z" transform="translate(-19.79 -19.94)"/>
    <path d="M36.22,97a2,2,0,0,0,.18-.74,1.58,1.58,0,0,0-.14-.69,1.11,1.11,0,0,0-.49-.49l.24-.56a1.46,1.46,0,0,1,.65.65,2,2,0,0,1,.23,1,2.74,2.74,0,0,1-.23,1.06,2.57,2.57,0,0,1-.84,1.09,2.09,2.09,0,0,1-1.16.38,2.83,2.83,0,0,1-1.28-.26l-.18-.08a2.92,2.92,0,0,1-1.07-.76,2.17,2.17,0,0,1-.5-1.11,2.48,2.48,0,0,1,.22-1.35,2.66,2.66,0,0,1,.64-.91,2,2,0,0,1,.88-.47,1.74,1.74,0,0,1,1,.09l-.24.55a1.36,1.36,0,0,0-.74-.06,1.57,1.57,0,0,0-.65.34,2,2,0,0,0-.46.65,1.66,1.66,0,0,0-.14,1.07,1.64,1.64,0,0,0,.46.83,2.79,2.79,0,0,0,.85.56l.18.08a3,3,0,0,0,1,.24A1.6,1.6,0,0,0,36.22,97Z" transform="translate(-19.79 -19.94)"/>
    <path d="M37.86,93.5a.38.38,0,0,1-.2-.23.44.44,0,0,1,0-.33.47.47,0,0,1,.25-.25.35.35,0,0,1,.3,0,.34.34,0,0,1,.19.22.5.5,0,0,1,0,.35.47.47,0,0,1-.24.24A.33.33,0,0,1,37.86,93.5Z" transform="translate(-19.79 -19.94)"/>
    <path d="M41.2,81.59a3.69,3.69,0,0,1,1.26,1.14,2.75,2.75,0,0,1,.43,1.44,3,3,0,0,1-.46,1.55,3,3,0,0,1-1.11,1.16,2.72,2.72,0,0,1-1.46.37,3.58,3.58,0,0,1-1.62-.5l-.63-.37a3.39,3.39,0,0,1-1.25-1.14,2.69,2.69,0,0,1-.42-1.45,3,3,0,0,1,.44-1.54,3.08,3.08,0,0,1,1.12-1.17A2.62,2.62,0,0,1,39,80.72a3.48,3.48,0,0,1,1.61.51Zm-1,.19a3.17,3.17,0,0,0-1.35-.45,2,2,0,0,0-1.18.24,2.4,2.4,0,0,0-.91.93,2.35,2.35,0,0,0-.34,1.24,2,2,0,0,0,.39,1.14,3.17,3.17,0,0,0,1.06.94l.64.37a3.17,3.17,0,0,0,1.35.45,2.09,2.09,0,0,0,1.19-.25,2.28,2.28,0,0,0,.9-.92,2.25,2.25,0,0,0,.35-1.25A2,2,0,0,0,42,83.08a3.23,3.23,0,0,0-1.08-.93Z" transform="translate(-19.79 -19.94)"/>
    <path d="M45.21,81l-.34.52-4.24-2.73.33-.52.71.44Zm-2.77-4.16-.13.16a1.4,1.4,0,0,0-.12.18,1.61,1.61,0,0,0-.3.89,1.52,1.52,0,0,0,.23.8,2.13,2.13,0,0,0,.62.65l-.06.24a3.21,3.21,0,0,1-.89-.82,1.81,1.81,0,0,1-.36-1,1.71,1.71,0,0,1,.32-1.08,1.33,1.33,0,0,1,.14-.19l.13-.13Z" transform="translate(-19.79 -19.94)"/>
    <path d="M44.85,76.79a3.35,3.35,0,0,1-1-1,2,2,0,0,1-.29-1.13A2.16,2.16,0,0,1,44,73.52a2.35,2.35,0,0,1,.63-.63,1.76,1.76,0,0,1,.72-.3,2,2,0,0,1,.78,0,3.46,3.46,0,0,1,.82.28l1,.73a2.42,2.42,0,0,1,.61.87,1.9,1.9,0,0,1,.14,1,2.49,2.49,0,0,1-.46,1.09,2.07,2.07,0,0,1-.94.76,2.13,2.13,0,0,1-1.18.09,3.32,3.32,0,0,1-1.24-.56Zm.45-.45a3,3,0,0,0,1,.46,1.63,1.63,0,0,0,.93,0,1.58,1.58,0,0,0,.77-.61,1.92,1.92,0,0,0,.37-.84,1.61,1.61,0,0,0-.06-.76,2.23,2.23,0,0,0-.37-.65l-1.19-.84a3.09,3.09,0,0,0-.51-.15,1.82,1.82,0,0,0-.57,0,1.52,1.52,0,0,0-.59.22,1.87,1.87,0,0,0-.55.54,1.58,1.58,0,0,0-.33.94,1.63,1.63,0,0,0,.3.88,2.89,2.89,0,0,0,.76.76Zm.17-4.71,4.05,2.87a2.19,2.19,0,0,1,.76.89,1.81,1.81,0,0,1,.13,1.06,2.91,2.91,0,0,1-1,1.66,2.86,2.86,0,0,1-.64.4,2,2,0,0,1-.72.18L48,78.21a2.34,2.34,0,0,0,.88-.29,2,2,0,0,0,.64-.59,1.7,1.7,0,0,0,.37-1.26,1.58,1.58,0,0,0-.72-1L46,72.79l-.89-.68Z" transform="translate(-19.79 -19.94)"/>
    <path d="M50.24,68a1.08,1.08,0,0,0-.91-.24,1.7,1.7,0,0,0-.92.66,2.1,2.1,0,0,0-.38.7,1.33,1.33,0,0,0,0,.65.79.79,0,0,0,.28.48l-.4.49a1.11,1.11,0,0,1-.39-.67,2,2,0,0,1,0-.94,3.16,3.16,0,0,1,.54-1,2.89,2.89,0,0,1,.81-.73,1.68,1.68,0,0,1,.88-.23,1.46,1.46,0,0,1,.88.36L52.55,69a2.52,2.52,0,0,0,.45.3,1.7,1.7,0,0,0,.44.18l0,0-.41.53a1.73,1.73,0,0,1-.39-.19,4.62,4.62,0,0,1-.4-.27Zm.88.5-.77,1a3.13,3.13,0,0,0-.7,1.37.93.93,0,0,0,.31.93.88.88,0,0,0,.76.17,1.42,1.42,0,0,0,.8-.55,2.47,2.47,0,0,0,.45-.84,2,2,0,0,0,.05-.8,1.61,1.61,0,0,0-.26-.66h.42a1.58,1.58,0,0,1,.22.49,2.7,2.7,0,0,1,.07.65,2.35,2.35,0,0,1-.16.75,2.8,2.8,0,0,1-.44.78,2.33,2.33,0,0,1-.75.64,1.45,1.45,0,0,1-.79.18,1.14,1.14,0,0,1-.72-.28A1.29,1.29,0,0,1,49.12,71,3.54,3.54,0,0,1,50,69.27l.81-1Z" transform="translate(-19.79 -19.94)"/>
    <path d="M55.13,67.62l-.42.47-3.78-3.34.4-.45.82.69ZM52.62,66a2.43,2.43,0,0,1-.6-1A2.2,2.2,0,0,1,52,63.89a2.17,2.17,0,0,1,.54-1,2.28,2.28,0,0,1,.79-.61,1.3,1.3,0,0,1,.85-.07,2.2,2.2,0,0,1,.95.55l2.47,2.17-.42.47-2.47-2.17a1.72,1.72,0,0,0-.72-.42.88.88,0,0,0-.62.06,1.76,1.76,0,0,0-.57.45,1.85,1.85,0,0,0-.39.71,1.75,1.75,0,0,0,0,.72,2.25,2.25,0,0,0,.21.65,1.75,1.75,0,0,0,.37.49Z" transform="translate(-19.79 -19.94)"/>
    <path d="M54.25,58.9a.34.34,0,0,1-.12-.26.46.46,0,0,1,.14-.31.44.44,0,0,1,.3-.15.35.35,0,0,1,.27.1.37.37,0,0,1,.11.27.46.46,0,0,1-.14.3.4.4,0,0,1-.3.15A.35.35,0,0,1,54.25,58.9Zm5.21,4-.43.45-3.65-3.49.43-.45Z" transform="translate(-19.79 -19.94)"/>
    <path d="M62.53,58a.75.75,0,0,0-.37-.21,1.07,1.07,0,0,0-.57,0,3.44,3.44,0,0,0-.89.46,5.78,5.78,0,0,1-1,.54,1.72,1.72,0,0,1-.79.15,1,1,0,0,1-.65-.33A1.13,1.13,0,0,1,58,58a1.76,1.76,0,0,1,.16-.84,2.73,2.73,0,0,1,.63-.88,2.91,2.91,0,0,1,.94-.64,1.67,1.67,0,0,1,.89-.12,1.27,1.27,0,0,1,.72.38l-.45.44a1,1,0,0,0-.77-.25,1.67,1.67,0,0,0-1,.53,2,2,0,0,0-.48.65,1,1,0,0,0-.08.55.72.72,0,0,0,.19.39.67.67,0,0,0,.36.21,1,1,0,0,0,.53-.08,5.89,5.89,0,0,0,.88-.48,5.62,5.62,0,0,1,1-.55,1.53,1.53,0,0,1,.79-.11,1.09,1.09,0,0,1,.63.34,1.15,1.15,0,0,1,.33.71,1.77,1.77,0,0,1-.18.87,3.52,3.52,0,0,1-1.69,1.59,1.69,1.69,0,0,1-.92.12,1.15,1.15,0,0,1-.7-.35l.44-.44a.87.87,0,0,0,.64.25,1.38,1.38,0,0,0,.66-.19,3,3,0,0,0,.57-.42A2.12,2.12,0,0,0,62.6,59a1.07,1.07,0,0,0,.12-.58A.74.74,0,0,0,62.53,58Z" transform="translate(-19.79 -19.94)"/>
    <path d="M67,55.85a2.79,2.79,0,0,1-1.2.63,2.3,2.3,0,0,1-1.25-.07,2.42,2.42,0,0,1-1.1-.75l-.13-.15a2.69,2.69,0,0,1-.64-1.24A2.4,2.4,0,0,1,62.72,53a2.24,2.24,0,0,1,.69-1,2.41,2.41,0,0,1,1.11-.59,2,2,0,0,1,1.12.11,2.6,2.6,0,0,1,1,.73l.23.26-3.23,2.83L63.31,55l2.75-2.42,0-.05a1.82,1.82,0,0,0-.67-.47,1.49,1.49,0,0,0-.81-.11,1.63,1.63,0,0,0-.82.41,1.71,1.71,0,0,0-.53.82,1.69,1.69,0,0,0,0,1,2.42,2.42,0,0,0,.54,1l.14.15a2.07,2.07,0,0,0,.85.6,1.85,1.85,0,0,0,1,.09,1.93,1.93,0,0,0,.94-.46,2.2,2.2,0,0,0,.56-.72,1.93,1.93,0,0,0,.18-.85l.47-.06a2.45,2.45,0,0,1-.15,1A2.69,2.69,0,0,1,67,55.85Z" transform="translate(-19.79 -19.94)"/>
    <path d="M68,51.46a3.14,3.14,0,0,1-.64-1.24,2.11,2.11,0,0,1,0-1.17,2.21,2.21,0,0,1,.72-1,2.29,2.29,0,0,1,1-.49,1.87,1.87,0,0,1,1,.1,2.94,2.94,0,0,1,1,.6l.78,1a2.63,2.63,0,0,1,.34,1,1.83,1.83,0,0,1-.16,1,2.3,2.3,0,0,1-.74.91,2,2,0,0,1-1.11.46,2.19,2.19,0,0,1-1.16-.24,3.23,3.23,0,0,1-1-.88Zm.55-.31a3.35,3.35,0,0,0,.8.72,1.59,1.59,0,0,0,.89.24,1.57,1.57,0,0,0,.91-.36,2.15,2.15,0,0,0,.6-.71,1.69,1.69,0,0,0,.16-.75,2.1,2.1,0,0,0-.17-.73l-.9-1.14a4,4,0,0,0-.46-.28A2,2,0,0,0,69.8,48a1.73,1.73,0,0,0-.63.05,2,2,0,0,0-.68.37,1.53,1.53,0,0,0-.58.81,1.65,1.65,0,0,0,0,.93,3.26,3.26,0,0,0,.52.94Zm-.31-5.74L68.7,45l4.45,5.63-.46.36-.64-.74Z" transform="translate(-19.79 -19.94)"/>
    <path d="M74.63,49.14a.34.34,0,0,1-.07-.29.43.43,0,0,1,.19-.28.46.46,0,0,1,.34-.1.34.34,0,0,1,.26.15.37.37,0,0,1,.06.29.5.5,0,0,1-.21.28.46.46,0,0,1-.32.1A.32.32,0,0,1,74.63,49.14Z" transform="translate(-19.79 -19.94)"/>
    <path d="M80.75,45.35l-.54.35L76.52,40l.54-.35Z" transform="translate(-19.79 -19.94)"/>
    <path d="M83.31,43.74l-.54.32-2.56-4.35.52-.31.57.92Zm-1.87-2.36a2.38,2.38,0,0,1-.27-1.1,2.11,2.11,0,0,1,.28-1.07,2.19,2.19,0,0,1,.84-.84,2.38,2.38,0,0,1,.93-.33,1.32,1.32,0,0,1,.84.2,2.25,2.25,0,0,1,.73.81l1.67,2.83-.54.32-1.67-2.83a1.77,1.77,0,0,0-.56-.63,1,1,0,0,0-.61-.13,2,2,0,0,0-1.27.8,1.75,1.75,0,0,0-.25.68,2,2,0,0,0,0,.69,1.88,1.88,0,0,0,.19.58Z" transform="translate(-19.79 -19.94)"/>
    <path d="M86.85,38.72a3.23,3.23,0,0,1-.39-1.33,1.93,1.93,0,0,1,.26-1.14,2.06,2.06,0,0,1,.9-.82,2.36,2.36,0,0,1,1.12-.3,2,2,0,0,1,1,.29,2.86,2.86,0,0,1,.83.77l.58,1.12a2.45,2.45,0,0,1,.14,1.06,1.94,1.94,0,0,1-.35,1,2.48,2.48,0,0,1-.91.75,2,2,0,0,1-1.2.25,2.06,2.06,0,0,1-1.08-.45,3.44,3.44,0,0,1-.85-1.07Zm.6-.2a3,3,0,0,0,.65.86,1.66,1.66,0,0,0,.84.41,1.51,1.51,0,0,0,1-.18,2,2,0,0,0,.72-.59,1.64,1.64,0,0,0,.3-.71,2.11,2.11,0,0,0,0-.75l-.67-1.29a2.25,2.25,0,0,0-.39-.36,2.06,2.06,0,0,0-.51-.27,1.68,1.68,0,0,0-.64-.08,2,2,0,0,0-.75.23,1.53,1.53,0,0,0-.71.69,1.61,1.61,0,0,0-.15.93,3,3,0,0,0,.33,1Zm2.2-2.94-.41-.89.52-.27L93,40.63l-.56.29Z" transform="translate(-19.79 -19.94)"/>
    <path d="M96.81,34.4a2.64,2.64,0,0,1,.26,1.12,1.72,1.72,0,0,1-.33,1,2.6,2.6,0,0,1-1.06.79,2,2,0,0,1-1.41.15,1.85,1.85,0,0,1-1.08-1.13l-1.32-3,.57-.25,1.33,3a1.74,1.74,0,0,0,.51.7,1,1,0,0,0,.61.21,1.77,1.77,0,0,0,.66-.16,2.19,2.19,0,0,0,.9-.66,1.39,1.39,0,0,0,.26-.81,2.06,2.06,0,0,0-.19-.84ZM95.2,31.9l.58-.26,2.07,4.61-.55.25-.5-1.06Z" transform="translate(-19.79 -19.94)"/>
    <path d="M97.34,29.42a.37.37,0,0,1,0-.29.48.48,0,0,1,.26-.22.42.42,0,0,1,.33,0,.35.35,0,0,1,.21.2.37.37,0,0,1,0,.29.48.48,0,0,1-.25.21.41.41,0,0,1-.34,0A.33.33,0,0,1,97.34,29.42Zm3.12,5.77-.58.23L98,30.74l.58-.24Z" transform="translate(-19.79 -19.94)"/>
    <path d="M105.23,32a.71.71,0,0,0-.24-.34,1,1,0,0,0-.55-.2,4.08,4.08,0,0,0-1,.05,6.77,6.77,0,0,1-1.1.1,1.8,1.8,0,0,1-.79-.19,1.09,1.09,0,0,1-.45-.57,1.08,1.08,0,0,1,0-.73,1.64,1.64,0,0,1,.48-.7,2.74,2.74,0,0,1,.94-.54,3,3,0,0,1,1.12-.2,1.75,1.75,0,0,1,.86.26,1.29,1.29,0,0,1,.5.65l-.6.21a.91.91,0,0,0-.59-.54,1.6,1.6,0,0,0-1.13.06,2,2,0,0,0-.7.4,1,1,0,0,0-.31.46.81.81,0,0,0,0,.44.71.71,0,0,0,.25.34,1,1,0,0,0,.52.14,4.85,4.85,0,0,0,1-.07,5.59,5.59,0,0,1,1.17-.07,1.6,1.6,0,0,1,.78.23,1.14,1.14,0,0,1,.43.57,1.16,1.16,0,0,1,0,.78,1.63,1.63,0,0,1-.51.71,3.32,3.32,0,0,1-1,.55,3.12,3.12,0,0,1-1.21.21,1.77,1.77,0,0,1-.9-.27,1.26,1.26,0,0,1-.49-.61l.59-.22a.93.93,0,0,0,.47.5,1.54,1.54,0,0,0,.68.09,2.64,2.64,0,0,0,.7-.15,2.42,2.42,0,0,0,.72-.39,1.33,1.33,0,0,0,.35-.48A.66.66,0,0,0,105.23,32Z" transform="translate(-19.79 -19.94)"/>
    <path d="M106.05,26.25a.37.37,0,0,1,0-.29.44.44,0,0,1,.27-.2.42.42,0,0,1,.33,0,.32.32,0,0,1,.19.22.34.34,0,0,1,0,.28.44.44,0,0,1-.27.2.41.41,0,0,1-.33,0A.31.31,0,0,1,106.05,26.25Zm2.68,6-.6.19-1.53-4.81.59-.19Z" transform="translate(-19.79 -19.94)"/>
    <path d="M111.66,26.57l-2.74.78-.12-.44,2.74-.78ZM110,25.21l1.41,4.92a1.06,1.06,0,0,0,.25.48.52.52,0,0,0,.33.16,1.61,1.61,0,0,0,.37,0l.25-.09.22-.1L113,31a1.71,1.71,0,0,1-.27.13,2.42,2.42,0,0,1-.35.12,1.66,1.66,0,0,1-.65.07.89.89,0,0,1-.53-.28,1.62,1.62,0,0,1-.37-.72l-1.41-4.92Z" transform="translate(-19.79 -19.94)"/>
    <path d="M113,24.23a.37.37,0,0,1,0-.29.5.5,0,0,1,.61-.16.4.4,0,0,1,.18.24.35.35,0,0,1-.05.28.43.43,0,0,1-.28.18.45.45,0,0,1-.33,0A.39.39,0,0,1,113,24.23Zm2.32,6.13-.6.15-1.25-4.89.61-.16Z" transform="translate(-19.79 -19.94)"/>
    <path d="M119.2,28.93l.2.49-.45.09L115.81,25l.63-.13Zm.63-4.77.63-.14-1,5.38-.45.1V29Z" transform="translate(-19.79 -19.94)"/>
    <path d="M125.13,28.44a2.72,2.72,0,0,1-1.34-.11,2.38,2.38,0,0,1-1-.72,2.52,2.52,0,0,1-.53-1.21l0-.2a2.67,2.67,0,0,1,.11-1.39,2.54,2.54,0,0,1,.74-1,2.59,2.59,0,0,1,2.39-.41,2,2,0,0,1,.89.68,2.9,2.9,0,0,1,.45,1.14l0,.34-4.24.69-.07-.46,3.61-.6v-.06a2,2,0,0,0-.31-.76,1.58,1.58,0,0,0-.63-.51,1.55,1.55,0,0,0-.92-.09,1.69,1.69,0,0,0-.88.42,1.74,1.74,0,0,0-.51.82,2.41,2.41,0,0,0,0,1.11l0,.2a2.08,2.08,0,0,0,.41,1,1.88,1.88,0,0,0,.79.6,1.91,1.91,0,0,0,1,.11,2.44,2.44,0,0,0,.86-.31,2,2,0,0,0,.6-.63l.44.19a2.29,2.29,0,0,1-.65.75A2.7,2.7,0,0,1,125.13,28.44Z" transform="translate(-19.79 -19.94)"/>
    <path d="M128.84,27.46a.37.37,0,0,1,.08-.29.4.4,0,0,1,.31-.15.43.43,0,0,1,.34.07.4.4,0,0,1,.16.26.35.35,0,0,1-.09.28.54.54,0,0,1-.65.08A.33.33,0,0,1,128.84,27.46Z" transform="translate(-19.79 -19.94)"/>
  </g>
</svg>
