<svg height="511pt" viewBox="-35 1 511 511.999" width="511pt" xmlns="http://www.w3.org/2000/svg"><path d="m252.160156 116.058594c-21.585937-13.15625-20.332031-28.339844-31.015625-42.464844-10.679687 14.125-9.425781 29.308594-31.011719 42.464844-28.359374 17.277344-45.304687-7.984375-69.675781 15.238281-22.085937 21.050781-7.308593 53.636719-24.28125 79.558594l12.941407 88.898437 17.574218 64.679688c3.4375 12.652344 17.910156 18.632812 29.277344 12.097656l42-24.15625.011719-.101562 23.164062.261718 23.164063-.261718.015625.101562 42 24.15625c11.363281 6.535156 25.835937.554688 29.273437-12.097656l17.578125-64.679688 12.941407-88.898437c-16.972657-25.921875-2.195313-58.507813-24.28125-79.558594-24.371094-23.222656-41.320313 2.039063-69.675782-15.238281zm0 0" fill="#ffedd6"/><path d="m252.160156 116.058594c-21.585937-13.15625-20.332031-28.339844-31.011718-42.460938v278.9375l23.160156-.265625.011718.105469 42 24.152344c11.367188 6.535156 25.839844.558594 29.277344-12.09375l17.574219-64.683594 12.945313-88.894531c-16.972657-25.921875-2.199219-58.511719-24.285157-79.558594-24.367187-23.222656-41.316406 2.039063-69.671875-15.238281zm0 0" fill="#ffdaab"/><path d="m239.609375 314.105469h-36.898437c-8.285157 0-15-6.71875-15-15.003907 0-8.285156 6.714843-15.003906 15-15.003906h21.894531v-57.734375c0-8.285156 6.71875-15.003906 15.003906-15.003906h45.859375c8.285156 0 15 6.71875 15 15.003906 0 8.285157-6.714844 15.003907-15 15.003907h-30.855469v57.734374c0 8.285157-6.71875 15.003907-15.003906 15.003907zm0 0" fill="#ffbe85"/><path d="m176.359375 241.367188h-19.953125c-8.285156 0-15.003906-6.71875-15.003906-15.003907 0-8.285156 6.71875-15.003906 15.003906-15.003906h19.953125c8.285156 0 15.003906 6.71875 15.003906 15.003906 0 8.285157-6.71875 15.003907-15.003906 15.003907zm0 0" fill="#a19d8d"/><path d="m285.46875 211.359375h-45.859375c-8.285156 0-15.003906 6.71875-15.003906 15.003906v57.738281h-3.457031v30.003907h18.460937c8.285156 0 15.003906-6.71875 15.003906-15.003907v-57.734374h30.855469c8.285156 0 15-6.71875 15-15.003907 0-8.285156-6.714844-15.003906-15-15.003906zm0 0" fill="#f59258"/><path d="m285.46875 241.367188h-19.957031c-8.285157 0-15-6.71875-15-15.003907 0-8.285156 6.714843-15.003906 15-15.003906h19.957031c8.285156 0 15 6.71875 15 15.003906 0 8.285157-6.714844 15.003907-15 15.003907zm0 0" fill="#666251"/><path d="m385.746094 247.886719c-2.511719 0-5.023438-.628907-7.292969-1.890625l-39.625-22.027344c-2.125-1.183594-3.929687-2.859375-5.261719-4.894531-9.914062-15.140625-11.210937-31.160157-12.355468-45.296875-1.214844-15.011719-2.335938-24.570313-9.730469-31.621094-7.785157-7.417969-12.589844-6.84375-23.121094-5.585938-11.066406 1.324219-26.226563 3.132813-44.007813-7.699218-12.105468-7.378906-18.734374-15.578125-23.207031-23.292969-4.46875 7.714844-11.101562 15.914063-23.207031 23.292969-17.777344 10.832031-32.941406 9.023437-44.007812 7.699218-10.53125-1.257812-15.335938-1.832031-23.121094 5.585938-7.394532 7.050781-8.515625 16.609375-9.730469 31.621094-1.144531 14.132812-2.441406 30.15625-12.355469 45.296875-1.328125 2.035156-3.136718 3.710937-5.261718 4.894531l-39.625 22.027344c-4.648438 2.585937-10.316407 2.515625-14.898438-.179688-4.582031-2.695312-7.394531-7.617187-7.394531-12.933594 0-5.738281-8.121094-14.652343-15.285157-22.519531-11.476562-12.601562-25.757812-28.28125-25.757812-49.046875 0-31.535156 30.382812-51.574218 42.382812-58.261718 1.9375-3.945313 3.316407-8.65625 4.859376-13.929688 4.476562-15.300781 10.042968-34.34375 33.394531-49.722656 22.324219-14.703125 40.660156-11.992188 54.050781-10.011719 7.296875 1.082031 13.058594 1.933594 18.824219.371094 4.730469-1.28125 8.9375-4.726563 14.265625-9.089844 10.65625-8.722656 25.246094-20.671875 52.867187-20.671875 27.621094 0 42.214844 11.949219 52.871094 20.671875 5.324219 4.363281 9.535156 7.808594 14.265625 9.089844 5.765625 1.5625 11.527344.710937 18.824219-.371094 13.390625-1.976563 31.726562-4.691406 54.046875 10.011719 23.351562 15.378906 28.917968 34.421875 33.394531 49.722656 1.542969 5.273438 2.921875 9.984375 4.859375 13.929688 12 6.6875 42.382812 26.726562 42.382812 58.261718 0 20.765625-14.28125 36.445313-25.757812 49.046875-7.164062 7.867188-15.285156 16.78125-15.285156 22.519531 0 5.316407-2.8125 10.238282-7.394532 12.933594-2.347656 1.378906-4.976562 2.070313-7.605468 2.070313zm0 0" fill="#e5e2d6"/><path d="m399.40625 103.054688c-1.9375-3.945313-3.3125-8.65625-4.855469-13.929688-4.476562-15.300781-10.046875-34.34375-33.398437-49.722656-22.320313-14.703125-40.65625-11.988282-54.046875-10.011719-7.296875 1.082031-13.058594 1.933594-18.824219.371094-4.730469-1.28125-8.9375-4.726563-14.265625-9.089844-10.65625-8.722656-25.25-20.671875-52.867187-20.671875v105.582031c4.472656 7.714844 11.101562 15.914063 23.203124 23.289063 17.78125 10.832031 32.941407 9.023437 44.011719 7.699218 10.527344-1.257812 15.335938-1.832031 23.121094 5.585938 7.394531 7.046875 8.511719 16.609375 9.726563 31.621094 1.144531 14.136718 2.441406 30.15625 12.355468 45.296875 1.332032 2.03125 3.136719 3.710937 5.261719 4.894531l39.628906 22.027344c2.265625 1.261718 4.777344 1.890625 7.289063 1.890625 2.628906 0 5.261718-.691407 7.605468-2.070313 4.582032-2.695312 7.394532-7.617187 7.394532-12.933594 0-5.738281 8.121094-14.652343 15.285156-22.519531 11.476562-12.601562 25.761719-28.28125 25.761719-49.046875 0-31.535156-30.386719-51.574218-42.386719-58.261718zm0 0" fill="#c9c5b1"/><path d="m402.113281 381.308594c-5.84375-12.984375-7.257812-27.773438-3.984375-41.632813l3.441406-14.554687c3.226563-13.652344 4.304688-27.667969 3.203126-41.65625l-3.980469-50.578125-.046875-.003907-70.230469-18.996093-12.058594 82.808593-17.335937 63.804688c-.5625 2.066406-2.066406 2.960938-2.914063 3.3125-.851562.351562-2.550781.777344-4.40625-.289062l-40.671875-23.390626c-2.53125-1.839843-5.671875-2.894531-8.988281-2.863281l-22.992187.261719-22.996094-.261719c-3.324219-.03125-6.453125 1.023438-8.984375 2.863281l-40.675781 23.390626c-1.855469 1.066406-3.554688.640624-4.40625.289062-.847657-.351562-2.351563-1.246094-2.914063-3.3125l-17.335937-63.804688-12.058594-82.808593-70.230469 18.996093-.046875-.011718-3.980469 50.59375c-1.101562 13.988281-.023437 28 3.203125 41.65625l3.4375 14.554687c3.277344 13.859375 1.863282 28.648438-3.984375 41.632813l-12.039062 26.757812c-8.949219 19.882813-8.609375 42.53125.921875 62.121094l.117187.246094c12.285157 25.257812 37.363281 41.058594 65.449219 41.234375l52.886719.328125c.15625.003906.308593.003906.464843.003906 12.304688 0 24.53125-3.0625 35.382813-8.867188l18.089844-9.671874c13.71875-7.335938 29.980469-7.121094 43.5.578124l13.265625 7.554688c11.289062 6.429688 24.125 9.832031 37.117187 9.832031l51.976563.007813h.011718c27.855469 0 53.726563-16.1875 65.910157-41.234375 9.535156-19.605469 9.871093-42.25.925781-62.132813zm0 0" fill="#c9c5b1"/><path d="m402.113281 381.308594c-5.84375-12.984375-7.257812-27.773438-3.984375-41.632813l3.441406-14.554687c3.226563-13.652344 4.304688-27.667969 3.203126-41.65625l-3.980469-50.578125-.046875-.003907-70.230469-18.996093-12.058594 82.808593-17.335937 63.804688c-.5625 2.066406-2.066406 2.960938-2.914063 3.3125-.851562.351562-2.550781.777344-4.40625-.289062l-40.671875-23.390626c-2.53125-1.839843-5.671875-2.894531-8.988281-2.863281l-22.992187.261719v150.617188c8.179687-.28125 16.402343 1.675781 23.804687 5.890624l13.265625 7.554688c11.289062 6.429688 24.121094 9.832031 37.113281 9.832031l51.980469.007813h.011719c27.851562 0 53.722656-16.1875 65.90625-41.234375 9.535156-19.605469 9.875-42.25.925781-62.132813zm0 0" fill="#b0ac9b"/></svg>